{
	"asset":{
		"generator":"Khronos glTF Blender I/O v4.0.44",
		"version":"2.0"
	},
	"scene":0,
	"scenes":[
		{
			"name":"Scene",
			"nodes":[
				239
			]
		}
	],
	"nodes":[
		{
			"name":"index_03_l_end_0143",
			"rotation":[
				-0.9813691973686218,
				0.11581610888242722,
				-0.1473635733127594,
				0.04225005954504013
			],
			"scale":[
				1.0000015497207642,
				1.0000001192092896,
				1.0000004768371582
			],
			"translation":[
				-36.82951354980469,
				100.46566772460938,
				5.654539585113525
			]
		},
		{
			"children":[
				0
			],
			"name":"index_03_l_016",
			"rotation":[
				-8.848589772014748e-08,
				-0.015222378075122833,
				3.409035684853734e-07,
				0.9998841285705566
			],
			"scale":[
				0.9999999403953552,
				1,
				1
			],
			"translation":[
				4.5299530029296875e-06,
				2.5608601570129395,
				3.814697265625e-06
			]
		},
		{
			"children":[
				1
			],
			"name":"index_02_l_015",
			"rotation":[
				-0.008924106135964394,
				-0.012002150528132915,
				0.3029848635196686,
				0.9528779983520508
			],
			"scale":[
				0.9999998807907104,
				1,
				1
			],
			"translation":[
				2.2649765014648438e-05,
				3.3724098205566406,
				-7.62939453125e-06
			]
		},
		{
			"children":[
				2
			],
			"name":"index_01_l_014",
			"rotation":[
				0.05756492540240288,
				0.0032629806082695723,
				0.1389864981174469,
				0.9886143803596497
			],
			"scale":[
				1.0000001192092896,
				1,
				1
			],
			"translation":[
				-1.7881393432617188e-05,
				8.301104545593262,
				7.62939453125e-06
			]
		},
		{
			"children":[
				3
			],
			"name":"index_metacarpal_l_013",
			"rotation":[
				0.0466320663690567,
				0.07732851803302765,
				-0.11867675185203552,
				0.9888182878494263
			],
			"scale":[
				1,
				0.9999998807907104,
				1
			],
			"translation":[
				0.035463809967041016,
				2.0046162605285645,
				-2.7342939376831055
			]
		},
		{
			"name":"middle_03_l_end_0144",
			"rotation":[
				-0.982853889465332,
				0.09125648438930511,
				-0.15678414702415466,
				0.03300276771187782
			],
			"scale":[
				1.0000016689300537,
				1.0000001192092896,
				1.0000005960464478
			],
			"translation":[
				-42.04888916015625,
				98.45316314697266,
				-0.6961734890937805
			]
		},
		{
			"children":[
				5
			],
			"name":"middle_03_l_020",
			"rotation":[
				-3.7252954143696115e-07,
				-0.0015606058295816183,
				-4.0885115026867425e-07,
				0.9999988079071045
			],
			"scale":[
				0.9999999403953552,
				0.9999999403953552,
				0.9999999403953552
			],
			"translation":[
				-3.337860107421875e-06,
				2.611847400665283,
				-3.5762786865234375e-07
			]
		},
		{
			"children":[
				6
			],
			"name":"middle_02_l_019",
			"rotation":[
				0.022193197160959244,
				0.0044968933798372746,
				0.35979440808296204,
				0.932756781578064
			],
			"translation":[
				3.5762786865234375e-06,
				4.016512870788574,
				3.814697265625e-06
			]
		},
		{
			"children":[
				7
			],
			"name":"middle_01_l_018",
			"rotation":[
				0.017103614285588264,
				-0.005748983938246965,
				0.052329208701848984,
				0.9984668493270874
			],
			"scale":[
				1,
				1,
				0.9999997615814209
			],
			"translation":[
				-1.7881393432617188e-06,
				7.331620693206787,
				7.152557373046875e-07
			]
		},
		{
			"children":[
				8
			],
			"name":"middle_metacarpal_l_017",
			"rotation":[
				0.07932814955711365,
				0.06771562993526459,
				-0.11794176697731018,
				0.9875279068946838
			],
			"scale":[
				1,
				0.9999998807907104,
				0.9999999403953552
			],
			"translation":[
				0.2217232584953308,
				2.2383854389190674,
				-0.324404239654541
			]
		},
		{
			"name":"pinky_03_l_end_0145",
			"rotation":[
				-0.9849433302879333,
				0.1429305076599121,
				-0.038782212883234024,
				0.08918225765228271
			],
			"scale":[
				1.0000003576278687,
				1,
				1.0000001192092896
			],
			"translation":[
				-30.98811912536621,
				100.7837905883789,
				17.871604919433594
			]
		},
		{
			"children":[
				10
			],
			"name":"pinky_03_l_00",
			"rotation":[
				1.1176745573493463e-07,
				-0.012507346458733082,
				4.722174651305977e-07,
				0.9999217987060547
			],
			"scale":[
				1,
				1,
				0.9999999403953552
			],
			"translation":[
				-4.0531158447265625e-06,
				2.204840898513794,
				-4.76837158203125e-07
			]
		},
		{
			"children":[
				11
			],
			"name":"pinky_02_l_023",
			"rotation":[
				0.02306319586932659,
				0.014270573854446411,
				0.29344072937965393,
				0.9555924534797668
			],
			"scale":[
				1,
				0.9999999403953552,
				1
			],
			"translation":[
				2.2798776626586914e-06,
				2.8307743072509766,
				-6.198883056640625e-06
			]
		},
		{
			"children":[
				12
			],
			"name":"pinky_01_l_022",
			"rotation":[
				-0.010738915763795376,
				-0.0815991759300232,
				0.17450512945652008,
				0.9812105894088745
			],
			"scale":[
				1,
				0.9999998807907104,
				0.9999999403953552
			],
			"translation":[
				-2.205371856689453e-06,
				7.188041687011719,
				1.621246337890625e-05
			]
		},
		{
			"children":[
				13
			],
			"name":"pinky_metacarpal_l_021",
			"rotation":[
				0.1260339766740799,
				0.007966120727360249,
				-0.14435526728630066,
				0.9814344644546509
			],
			"scale":[
				0.9999999403953552,
				1,
				0.9999999403953552
			],
			"translation":[
				-0.2072993367910385,
				1.4417650699615479,
				3.6560659408569336
			]
		},
		{
			"name":"ring_03_l_end_0146",
			"rotation":[
				-0.9856148958206177,
				0.10524597764015198,
				-0.09295155853033066,
				0.09405645728111267
			],
			"scale":[
				0.9999979138374329,
				0.9999997019767761,
				0.9999975562095642
			],
			"translation":[
				-40.146827697753906,
				97.71154022216797,
				15.26728343963623
			]
		},
		{
			"children":[
				15
			],
			"name":"ring_03_l_026",
			"rotation":[
				1.117587888899152e-08,
				0.0011812698794528842,
				1.080335039205238e-07,
				0.9999992847442627
			],
			"scale":[
				0.9999999403953552,
				1,
				1
			],
			"translation":[
				1.7881393432617188e-06,
				2.417992115020752,
				-9.5367431640625e-07
			]
		},
		{
			"children":[
				16
			],
			"name":"ring_02_l_025",
			"rotation":[
				0.020959017798304558,
				0.016063740476965904,
				0.31881794333457947,
				0.9474480748176575
			],
			"scale":[
				0.9999998211860657,
				0.9999998807907104,
				0.9999998807907104
			],
			"translation":[
				-1.5348196029663086e-05,
				3.6485650539398193,
				7.152557373046875e-06
			]
		},
		{
			"children":[
				17
			],
			"name":"ring_01_l_024",
			"rotation":[
				-0.02594122663140297,
				-0.05797215551137924,
				0.08207008987665176,
				0.994600772857666
			],
			"scale":[
				1,
				1.0000001192092896,
				1
			],
			"translation":[
				3.355741500854492e-05,
				7.058249473571777,
				-9.5367431640625e-07
			]
		},
		{
			"children":[
				18
			],
			"name":"ring_metacarpal_l_01",
			"rotation":[
				0.1176445260643959,
				0.015418654307723045,
				-0.11015937477350235,
				0.9868064522743225
			],
			"scale":[
				0.9999998807907104,
				0.9999998211860657,
				1
			],
			"translation":[
				0.25830963253974915,
				2.030191659927368,
				1.6357250213623047
			]
		},
		{
			"name":"thumb_03_l_end_0147",
			"rotation":[
				-0.49398306012153625,
				-0.06079355999827385,
				-0.8634088635444641,
				0.08252278715372086
			],
			"scale":[
				0.9999978542327881,
				0.9999999403953552,
				0.9999999403953552
			],
			"translation":[
				-3.15334153175354,
				95.164794921875,
				-50.31694030761719
			]
		},
		{
			"children":[
				20
			],
			"name":"thumb_03_l_029",
			"rotation":[
				-4.30192443445776e-07,
				0.026776233687996864,
				1.714248156758913e-07,
				0.999641478061676
			],
			"translation":[
				-3.814697265625e-06,
				2.2544331550598145,
				-5.960464477539062e-07
			]
		},
		{
			"children":[
				21
			],
			"name":"thumb_02_l_028",
			"rotation":[
				0.002970543224364519,
				-0.03207119554281235,
				0.21499013900756836,
				0.9760849475860596
			],
			"scale":[
				1,
				0.9999999403953552,
				0.9999999403953552
			],
			"translation":[
				2.288818359375e-05,
				5.933958530426025,
				-2.002716064453125e-05
			]
		},
		{
			"children":[
				22
			],
			"name":"thumb_01_l_027",
			"rotation":[
				-0.2861033082008362,
				0.728316605091095,
				0.06606016308069229,
				0.6191412806510925
			],
			"scale":[
				0.9999998211860657,
				0.9999998807907104,
				0.9999999403953552
			],
			"translation":[
				-0.30825477838516235,
				1.6697471141815186,
				-2.233015537261963
			]
		},
		{
			"name":"Slide_end_0224",
			"rotation":[
				-0.26501694321632385,
				0.25337740778923035,
				-0.23701010644435883,
				0.8996622562408447
			],
			"scale":[
				0.9999999403953552,
				0.9999999403953552,
				0.9999999403953552
			],
			"translation":[
				-48.8680419921875,
				-83.60052490234375,
				55.7958984375
			]
		},
		{
			"children":[
				24
			],
			"name":"Slide_0139",
			"rotation":[
				-0.08507049083709717,
				-0.11871699243783951,
				-0.08413480222225189,
				0.9856929779052734
			],
			"scale":[
				0.9999999403953552,
				1.0000001192092896,
				0.9999998807907104
			],
			"translation":[
				3.04925537109375,
				15.887664794921875,
				-2.4225997924804688
			]
		},
		{
			"name":"Trigger_end_0225",
			"rotation":[
				-0.26860183477401733,
				0.24286586046218872,
				-0.24825212359428406,
				0.8984654545783997
			],
			"scale":[
				0.9999999403953552,
				0.9999999403953552,
				0.9999999403953552
			],
			"translation":[
				-51.0150146484375,
				-74.1463623046875,
				55.8431396484375
			]
		},
		{
			"children":[
				26
			],
			"name":"Trigger_0140",
			"rotation":[
				-0.07615117728710175,
				-0.10775735229253769,
				-0.07742185145616531,
				0.9882283210754395
			],
			"scale":[
				0.9999999403953552,
				1.0000001192092896,
				0.9999998807907104
			],
			"translation":[
				1.45166015625,
				8.36163330078125,
				-1.1468048095703125
			]
		},
		{
			"name":"Hammer_end_0226",
			"rotation":[
				0.38785967230796814,
				-0.49538809061050415,
				-0.6756429672241211,
				0.3842683434486389
			],
			"scale":[
				1,
				1.0000001192092896,
				1
			],
			"translation":[
				4.5035400390625,
				23.389923095703125,
				-94.50613403320312
			]
		},
		{
			"children":[
				28
			],
			"name":"Hammer_0141",
			"rotation":[
				-0.17240826785564423,
				0.8242342472076416,
				0.3649890720844269,
				0.3971099555492401
			],
			"scale":[
				0.9999999403953552,
				0.9999995827674866,
				1
			],
			"translation":[
				-5.3487548828125,
				6.28082275390625,
				4.331275939941406
			]
		},
		{
			"name":"Magazine_end_0227",
			"rotation":[
				0.6742038726806641,
				0.7030333280563354,
				-0.11916149407625198,
				0.1923377811908722
			],
			"scale":[
				0.9999999403953552,
				0.9999997019767761,
				1
			],
			"translation":[
				-98.19149017333984,
				-19.04815673828125,
				9.12921142578125
			]
		},
		{
			"children":[
				30
			],
			"name":"Magazine_0142",
			"rotation":[
				-0.8824069499969482,
				-0.3081788420677185,
				0.33500605821609497,
				0.11897369474172592
			],
			"scale":[
				1,
				0.9999998211860657,
				0.9999999403953552
			],
			"translation":[
				0.8450927734375,
				-1.420135498046875,
				-0.75738525390625
			]
		},
		{
			"children":[
				25,
				27,
				29,
				31
			],
			"name":"Handle_0118",
			"rotation":[
				0.28830498456954956,
				-0.14508171379566193,
				0.3623290956020355,
				0.8743850588798523
			],
			"translation":[
				1781.982666015625,
				9782.2626953125,
				1161.6158447265625
			]
		},
		{
			"children":[
				32
			],
			"name":"Root_0138",
			"rotation":[
				8.009374141693115e-07,
				1.8789633315918763e-07,
				-1.5124680885492126e-06,
				1
			],
			"translation":[
				-6.8745021053473465e-06,
				1.0728836969065014e-05,
				-3.58117654286616e-06
			]
		},
		{
			"children":[
				33
			],
			"name":"SK_Top_Tier_Pistol.ao_02",
			"rotation":[
				-0.9553126096725464,
				-0.17931689321994781,
				-0.1088319942355156,
				0.20827582478523254
			],
			"scale":[
				0.9999997019767761,
				0.9999998211860657,
				0.9999996423721313
			],
			"translation":[
				-87.7833480834961,
				69.9431381225586,
				25.80497932434082
			]
		},
		{
			"children":[
				4,
				9,
				14,
				19,
				23,
				34
			],
			"name":"hand_l_012",
			"rotation":[
				-0.15915851294994354,
				-0.745921790599823,
				0.12648706138134003,
				0.6342478394508362
			],
			"scale":[
				0.9999998211860657,
				0.9999999403953552,
				1
			],
			"translation":[
				1.239776611328125e-05,
				22.34912872314453,
				-6.508827209472656e-05
			]
		},
		{
			"name":"lowerarm_twist_01_l_end_0148",
			"rotation":[
				0.535191535949707,
				0.40724629163742065,
				0.7267307639122009,
				0.1399391144514084
			],
			"scale":[
				1,
				1.0000003576278687,
				1.0000003576278687
			],
			"translation":[
				-7.359699726104736,
				34.06843566894531,
				-111.06331634521484
			]
		},
		{
			"children":[
				36
			],
			"name":"lowerarm_twist_01_l_030",
			"rotation":[
				-1.695007227908718e-07,
				6.724149557157943e-07,
				-8.940698137394065e-08,
				1
			],
			"scale":[
				0.9999999403953552,
				0.9999999403953552,
				0.9999999403953552
			],
			"translation":[
				1.0132789611816406e-05,
				17.8548583984375,
				-4.996359348297119e-05
			]
		},
		{
			"name":"lowerarm_twist_02_l_end_0149",
			"rotation":[
				0.5351914763450623,
				0.40724608302116394,
				0.7267308831214905,
				0.13993901014328003
			],
			"scale":[
				1,
				1.000000238418579,
				1.0000001192092896
			],
			"translation":[
				-7.3597187995910645,
				42.303409576416016,
				-111.06331634521484
			]
		},
		{
			"children":[
				38
			],
			"name":"lowerarm_twist_02_l_031",
			"rotation":[
				-1.6670674085617065e-07,
				6.649643751188705e-07,
				-1.341104507446289e-07,
				1
			],
			"scale":[
				0.9999999403953552,
				1,
				0.9999999403953552
			],
			"translation":[
				-2.5033950805664062e-06,
				9.619884490966797,
				-4.354119300842285e-05
			]
		},
		{
			"children":[
				35,
				37,
				39
			],
			"name":"lowerarm_l_011",
			"rotation":[
				-0.008719570934772491,
				0.03935423120856285,
				-0.24513055384159088,
				0.9686517715454102
			],
			"scale":[
				1,
				1,
				0.9999999403953552
			],
			"translation":[
				-0.004627227783203125,
				26.651262283325195,
				0.0645323395729065
			]
		},
		{
			"name":"upperarm_twist_01_l_end_0150",
			"rotation":[
				0.6482019424438477,
				0.14515838027000427,
				0.579193115234375,
				0.4725448191165924
			],
			"scale":[
				0.9999998807907104,
				1,
				1
			],
			"translation":[
				47.49430465698242,
				53.504642486572266,
				-115.31400299072266
			]
		},
		{
			"children":[
				41
			],
			"name":"upperarm_twist_01_l_032",
			"rotation":[
				0.04338833689689636,
				0.04195452108979225,
				0.21431958675384521,
				0.9748971462249756
			],
			"scale":[
				1,
				0.9999999403953552,
				0.9999999403953552
			],
			"translation":[
				-6.735324859619141e-06,
				0.004097446799278259,
				-5.379319190979004e-06
			]
		},
		{
			"name":"upperarm_twist_02_l_end_0151",
			"rotation":[
				0.6452804207801819,
				0.2758566439151764,
				0.6446723341941833,
				0.30317291617393494
			],
			"scale":[
				1,
				1,
				1.0000001192092896
			],
			"translation":[
				9.235873222351074,
				62.026390075683594,
				-112.17108154296875
			]
		},
		{
			"children":[
				43
			],
			"name":"upperarm_twist_02_l_033",
			"rotation":[
				0.0012106142239645123,
				-3.2037519304140005e-07,
				8.682261250214651e-05,
				0.9999992847442627
			],
			"scale":[
				1,
				0.9999999403953552,
				0.9999999403953552
			],
			"translation":[
				-0.0023986995220184326,
				13.794062614440918,
				0.03339439630508423
			]
		},
		{
			"children":[
				40,
				42,
				44
			],
			"name":"upperarm_l_010",
			"rotation":[
				-0.3245909512042999,
				0.022598085924983025,
				-0.008888027630746365,
				0.9455427527427673
			],
			"scale":[
				1,
				0.9999999403953552,
				0.9999999403953552
			],
			"translation":[
				-3.1757190299686044e-06,
				15.511107444763184,
				0.00010871142148971558
			]
		},
		{
			"children":[
				45
			],
			"name":"clavicle_l_09",
			"rotation":[
				-0.7242769002914429,
				-0.0944802314043045,
				0.12242928147315979,
				0.6719430685043335
			],
			"scale":[
				0.9999999403953552,
				1,
				1.0000001192092896
			],
			"translation":[
				-1.7793952226638794,
				3.9803414344787598,
				-2.322321891784668
			]
		},
		{
			"name":"index_03_r_end_0152",
			"rotation":[
				0.17347589135169983,
				0.0453045554459095,
				0.9770909547805786,
				0.11465982347726822
			],
			"scale":[
				0.9999982714653015,
				0.9999998211860657,
				0.9999992847442627
			],
			"translation":[
				-37.075584411621094,
				100.466552734375,
				-3.6804614067077637
			]
		},
		{
			"children":[
				47
			],
			"name":"index_03_r_041",
			"rotation":[
				-1.3234110838311608e-06,
				-0.0015934898983687162,
				-2.8437971195671707e-06,
				0.9999987483024597
			],
			"translation":[
				8.821487426757812e-06,
				2.5609030723571777,
				-3.5762786865234375e-06
			]
		},
		{
			"children":[
				48
			],
			"name":"index_02_r_040",
			"rotation":[
				0.007821551524102688,
				-0.0102181201800704,
				0.3030373156070709,
				0.9528918266296387
			],
			"scale":[
				0.9999998211860657,
				0.9999998807907104,
				1
			],
			"translation":[
				3.790855407714844e-05,
				3.372532367706299,
				-9.5367431640625e-07
			]
		},
		{
			"children":[
				49
			],
			"name":"index_01_r_039",
			"rotation":[
				-0.05856689438223839,
				0.016293348744511604,
				0.1385650485754013,
				0.9884858131408691
			],
			"scale":[
				0.9999999403953552,
				1,
				1
			],
			"translation":[
				3.933906555175781e-06,
				8.301069259643555,
				-1.430511474609375e-06
			]
		},
		{
			"children":[
				50
			],
			"name":"index_metacarpal_r_038",
			"rotation":[
				-0.06328458338975906,
				0.05377363786101341,
				-0.11073293536901474,
				0.9903745055198669
			],
			"scale":[
				1,
				1,
				0.9999999403953552
			],
			"translation":[
				0.7823469638824463,
				2.0044949054718018,
				2.6202898025512695
			]
		},
		{
			"name":"middle_03_r_end_0153",
			"rotation":[
				0.1377819925546646,
				0.0322960689663887,
				0.9856513738632202,
				0.0920022577047348
			],
			"scale":[
				0.999998927116394,
				1,
				0.9999996423721313
			],
			"translation":[
				-42.04806900024414,
				98.45313262939453,
				-1.1820638179779053
			]
		},
		{
			"children":[
				52
			],
			"name":"middle_03_r_045",
			"rotation":[
				2.3293994289019793e-08,
				-0.030629925429821014,
				3.1213954088116225e-08,
				0.9995307922363281
			],
			"scale":[
				0.9999999403953552,
				1,
				1
			],
			"translation":[
				7.152557373046875e-07,
				2.611276626586914,
				-1.9073486328125e-06
			]
		},
		{
			"children":[
				53
			],
			"name":"middle_02_r_044",
			"rotation":[
				-0.05360681563615799,
				0.023970026522874832,
				0.35701340436935425,
				0.9322516918182373
			],
			"translation":[
				2.9325485229492188e-05,
				4.017269134521484,
				6.67572021484375e-06
			]
		},
		{
			"children":[
				54
			],
			"name":"middle_01_r_043",
			"rotation":[
				-0.012511663138866425,
				0.027815140783786774,
				0.05170702189207077,
				0.9981964826583862
			],
			"scale":[
				0.9999998807907104,
				1.0000001192092896,
				1
			],
			"translation":[
				1.537799835205078e-05,
				7.331424713134766,
				-9.5367431640625e-07
			]
		},
		{
			"children":[
				55
			],
			"name":"middle_metacarpal_r_042",
			"rotation":[
				-0.0946769267320633,
				0.07111381739377975,
				-0.1060527116060257,
				0.9872851371765137
			],
			"scale":[
				1,
				1,
				0.9999999403953552
			],
			"translation":[
				0.30213403701782227,
				2.2384138107299805,
				0.2513366937637329
			]
		},
		{
			"name":"pinky_03_r_end_0154",
			"rotation":[
				0.06250246614217758,
				0.09259939193725586,
				0.9837319254875183,
				0.14067786931991577
			],
			"scale":[
				1.0000009536743164,
				1.0000001192092896,
				1.0000005960464478
			],
			"translation":[
				-31.825937271118164,
				100.77986145019531,
				-16.356592178344727
			]
		},
		{
			"children":[
				57
			],
			"name":"pinky_03_r_049",
			"rotation":[
				2.6543556685965086e-08,
				-0.00806470774114132,
				1.6764352039899677e-07,
				0.9999675154685974
			],
			"scale":[
				1,
				0.9999998807907104,
				1.0000001192092896
			],
			"translation":[
				3.159046173095703e-06,
				2.2047224044799805,
				2.384185791015625e-06
			]
		},
		{
			"children":[
				58
			],
			"name":"pinky_02_r_048",
			"rotation":[
				-0.011195003055036068,
				0.017602091655135155,
				0.294058233499527,
				0.9555598497390747
			],
			"scale":[
				0.9999999403953552,
				1.0000001192092896,
				0.9999999403953552
			],
			"translation":[
				-4.351139068603516e-06,
				2.830758571624756,
				1.9073486328125e-06
			]
		},
		{
			"children":[
				59
			],
			"name":"pinky_01_r_047",
			"rotation":[
				0.019818490371108055,
				0.06035340949892998,
				0.17371335625648499,
				0.982745349407196
			],
			"scale":[
				0.9999999403953552,
				0.9999999403953552,
				1
			],
			"translation":[
				1.2248754501342773e-05,
				7.187812328338623,
				-2.1457672119140625e-06
			]
		},
		{
			"children":[
				60
			],
			"name":"pinky_metacarpal_r_046",
			"rotation":[
				-0.14666570723056793,
				0.11285760253667831,
				-0.12336011976003647,
				0.9749536514282227
			],
			"scale":[
				1,
				0.9999999403953552,
				0.9999999403953552
			],
			"translation":[
				-1.199794054031372,
				1.4419045448303223,
				-3.459794521331787
			]
		},
		{
			"name":"ring_03_r_end_0155",
			"rotation":[
				0.08449700474739075,
				0.0931524932384491,
				0.9863773584365845,
				0.10603117197751999
			],
			"scale":[
				0.9999995827674866,
				0.9999999403953552,
				0.999999463558197
			],
			"translation":[
				-39.882728576660156,
				97.71002960205078,
				-15.953354835510254
			]
		},
		{
			"children":[
				62
			],
			"name":"ring_03_r_053",
			"rotation":[
				8.381905836074566e-09,
				-0.0008435392519459128,
				7.357451181633223e-08,
				0.9999996423721313
			],
			"scale":[
				0.9999999403953552,
				1,
				1
			],
			"translation":[
				2.384185791015625e-07,
				2.418012857437134,
				-4.76837158203125e-06
			]
		},
		{
			"children":[
				63
			],
			"name":"ring_02_r_052",
			"rotation":[
				-0.014532902278006077,
				0.018623216077685356,
				0.31917625665664673,
				0.9474009275436401
			],
			"scale":[
				1,
				0.9999999403953552,
				1
			],
			"translation":[
				2.562999725341797e-06,
				3.648329734802246,
				4.291534423828125e-06
			]
		},
		{
			"children":[
				64
			],
			"name":"ring_01_r_051",
			"rotation":[
				0.029920820146799088,
				0.050205495208501816,
				0.08068239688873291,
				0.9950248599052429
			],
			"scale":[
				0.9999999403953552,
				1.0000001192092896,
				1
			],
			"translation":[
				1.71661376953125e-05,
				7.058411598205566,
				2.86102294921875e-06
			]
		},
		{
			"children":[
				65
			],
			"name":"ring_metacarpal_r_050",
			"rotation":[
				-0.13361698389053345,
				0.10090083628892899,
				-0.09015347808599472,
				0.9817524552345276
			],
			"scale":[
				1,
				0.9999999403953552,
				1
			],
			"translation":[
				-0.19916808605194092,
				2.030092239379883,
				-1.6439260244369507
			]
		},
		{
			"name":"thumb_03_r_end_0156",
			"rotation":[
				-0.8687172532081604,
				-0.0818585678935051,
				-0.4845869839191437,
				0.06168429180979729
			],
			"scale":[
				1.0000057220458984,
				1.000000238418579,
				1.0000001192092896
			],
			"translation":[
				-2.0606939792633057,
				95.16476440429688,
				50.3732795715332
			]
		},
		{
			"children":[
				67
			],
			"name":"thumb_03_r_056",
			"rotation":[
				-9.732368511095046e-08,
				0.003160752123221755,
				-2.0396065281147457e-07,
				0.9999949932098389
			],
			"scale":[
				1,
				1.0000001192092896,
				1.0000001192092896
			],
			"translation":[
				4.5299530029296875e-06,
				2.2544515132904053,
				4.76837158203125e-06
			]
		},
		{
			"children":[
				68
			],
			"name":"thumb_02_r_055",
			"rotation":[
				0.004343251697719097,
				-0.014354532584547997,
				0.21497516334056854,
				0.976504385471344
			],
			"scale":[
				1.0000001192092896,
				1,
				1
			],
			"translation":[
				-5.7220458984375e-06,
				5.933870792388916,
				-9.775161743164062e-06
			]
		},
		{
			"children":[
				69
			],
			"name":"thumb_01_r_054",
			"rotation":[
				0.29228782653808594,
				-0.6309637427330017,
				0.027850091457366943,
				0.7181065082550049
			],
			"scale":[
				0.9999998807907104,
				0.9999997615814209,
				1
			],
			"translation":[
				0.3146083354949951,
				1.6698276996612549,
				2.2320823669433594
			]
		},
		{
			"children":[
				51,
				56,
				61,
				66,
				70
			],
			"name":"hand_r_037",
			"rotation":[
				0.17513355612754822,
				0.6511362791061401,
				0.10330667346715927,
				0.7312164902687073
			],
			"scale":[
				1,
				0.9999999403953552,
				0.9999999403953552
			],
			"translation":[
				-1.4543533325195312e-05,
				22.349271774291992,
				9.757280349731445e-05
			]
		},
		{
			"name":"lowerarm_twist_01_r_end_0157",
			"rotation":[
				-0.7267314791679382,
				0.13993892073631287,
				-0.5351910591125488,
				0.40724554657936096
			],
			"scale":[
				1,
				1,
				0.9999997615814209
			],
			"translation":[
				-7.359598159790039,
				34.06840133666992,
				111.06327056884766
			]
		},
		{
			"children":[
				72
			],
			"name":"lowerarm_twist_01_r_057",
			"rotation":[
				-3.4458935260772705e-08,
				-8.177012205123901e-07,
				5.587935447692871e-08,
				1
			],
			"scale":[
				0.9999999403953552,
				1,
				1.0000001192092896
			],
			"translation":[
				-1.049041748046875e-05,
				17.85496711730957,
				5.8278441429138184e-05
			]
		},
		{
			"name":"lowerarm_twist_02_r_end_0159",
			"rotation":[
				-0.7267308831214905,
				0.13993865251541138,
				-0.5351917743682861,
				0.40724584460258484
			],
			"scale":[
				0.9999998807907104,
				0.9999999403953552,
				0.9999998211860657
			],
			"translation":[
				-7.35974645614624,
				42.3034553527832,
				111.06328582763672
			]
		},
		{
			"children":[
				74
			],
			"name":"lowerarm_twist_02_r_058",
			"rotation":[
				3.725290298461914e-09,
				-1.4528632164001465e-07,
				1.4901161193847656e-08,
				1
			],
			"scale":[
				0.9999998807907104,
				1,
				1
			],
			"translation":[
				-1.5854835510253906e-05,
				9.619946479797363,
				7.162988185882568e-05
			]
		},
		{
			"children":[
				71,
				73,
				75
			],
			"name":"lowerarm_r_036",
			"rotation":[
				0.010062986053526402,
				-0.0390145517885685,
				-0.24524782598018646,
				0.9686228036880493
			],
			"scale":[
				1,
				0.9999999403953552,
				0.9999999403953552
			],
			"translation":[
				-0.0011782050132751465,
				26.651437759399414,
				0.009487628936767578
			]
		},
		{
			"name":"upperarm_twist_01_r_end_0160",
			"rotation":[
				-0.5041713118553162,
				0.4536527395248413,
				-0.7081258296966553,
				0.19638791680335999
			],
			"scale":[
				0.9999998807907104,
				0.9999997019767761,
				0.9999997615814209
			],
			"translation":[
				21.058841705322266,
				53.504817962646484,
				122.92089080810547
			]
		},
		{
			"children":[
				77
			],
			"name":"upperarm_twist_01_r_059",
			"rotation":[
				-0.06540315598249435,
				0.06553539633750916,
				0.2082553505897522,
				0.9736823439598083
			],
			"scale":[
				1,
				0.9999999403953552,
				1
			],
			"translation":[
				-8.344650268554688e-07,
				0.004099607467651367,
				4.2691826820373535e-06
			]
		},
		{
			"name":"upperarm_twist_02_r_end_0161",
			"rotation":[
				-0.6446724534034729,
				0.30317258834838867,
				-0.6452805995941162,
				0.27585652470588684
			],
			"scale":[
				1,
				1,
				0.9999999403953552
			],
			"translation":[
				9.235816955566406,
				62.02657699584961,
				112.17102813720703
			]
		},
		{
			"children":[
				79
			],
			"name":"upperarm_twist_02_r_060",
			"rotation":[
				0.0001789161906344816,
				6.633345037698746e-07,
				2.1999934688210487e-05,
				1
			],
			"translation":[
				-0.0006105899810791016,
				13.79416275024414,
				0.004922263324260712
			]
		},
		{
			"children":[
				76,
				78,
				80
			],
			"name":"upperarm_r_035",
			"rotation":[
				0.32328224182128906,
				-0.02260833978652954,
				-0.008856812492012978,
				0.945991039276123
			],
			"translation":[
				-2.177467104047537e-05,
				15.511085510253906,
				9.83942300081253e-05
			]
		},
		{
			"children":[
				81
			],
			"name":"clavicle_r_034",
			"rotation":[
				0.7242718935012817,
				0.09448112547397614,
				0.12243086099624634,
				0.6719481348991394
			],
			"translation":[
				-1.7793983221054077,
				3.9803884029388428,
				2.3223259449005127
			]
		},
		{
			"name":"C_brow_mid_end_0162",
			"rotation":[
				-0.4300699532032013,
				0.07002540677785873,
				0.031482450664043427,
				0.899524986743927
			],
			"scale":[
				0.9999999403953552,
				0.9999999403953552,
				0.9999999403953552
			],
			"translation":[
				17.578107833862305,
				-104.58778381347656,
				115.79962158203125
			]
		},
		{
			"children":[
				83
			],
			"name":"C_brow_mid_064",
			"rotation":[
				0.2150876522064209,
				0.6141723990440369,
				-0.24835845828056335,
				0.7175288200378418
			],
			"scale":[
				1,
				1,
				1.0000001192092896
			],
			"translation":[
				8.213523864746094,
				6.773255348205566,
				0.02253979817032814
			]
		},
		{
			"name":"L_brow_mid_end_0163",
			"rotation":[
				-0.40195661783218384,
				-0.3557611405849457,
				-0.02828633040189743,
				0.843246579170227
			],
			"scale":[
				0.9999998807907104,
				1,
				1
			],
			"translation":[
				-50.5419807434082,
				-112.44628143310547,
				98.89347839355469
			]
		},
		{
			"children":[
				85
			],
			"name":"L_brow_mid_065",
			"rotation":[
				0.20837050676345825,
				0.8763251900672913,
				-0.22438570857048035,
				0.3718695640563965
			],
			"translation":[
				7.594025611877441,
				7.673664093017578,
				-2.8790812492370605
			]
		},
		{
			"name":"L_brow_outer_end_0164",
			"rotation":[
				-0.3667612373828888,
				-0.33753424882888794,
				0.09765741229057312,
				0.8614057898521423
			],
			"translation":[
				-12.527853965759277,
				-117.80863952636719,
				104.96440887451172
			]
		},
		{
			"children":[
				87
			],
			"name":"L_brow_outer_066",
			"rotation":[
				0.09513538330793381,
				0.863646924495697,
				-0.2853069305419922,
				0.404553085565567
			],
			"scale":[
				1,
				1.000000238418579,
				0.9999999403953552
			],
			"translation":[
				5.849367141723633,
				7.544394016265869,
				-4.90455436706543
			]
		},
		{
			"name":"L_cheek_inner_end_0165",
			"rotation":[
				-0.5315550565719604,
				-0.6003772616386414,
				-0.16645076870918274,
				0.573838472366333
			],
			"scale":[
				0.9999998211860657,
				1,
				1
			],
			"translation":[
				-124.6789779663086,
				-64.54436492919922,
				61.127952575683594
			]
		},
		{
			"children":[
				89
			],
			"name":"L_cheek_inner_067",
			"rotation":[
				0.39848384261131287,
				0.8798908591270447,
				-0.2586567997932434,
				0.009968097321689129
			],
			"scale":[
				1,
				1.0000003576278687,
				1.0000001192092896
			],
			"translation":[
				7.208566665649414,
				2.5812361240386963,
				-3.8186111450195312
			]
		},
		{
			"name":"C_lip_upper_mid_end_0166",
			"rotation":[
				-0.6661823987960815,
				-0.0002481047122273594,
				-0.001705880044028163,
				0.7457868456840515
			],
			"scale":[
				0.9999998807907104,
				1.0000001192092896,
				1
			],
			"translation":[
				-0.4467068314552307,
				-24.63279914855957,
				148.8984832763672
			]
		},
		{
			"children":[
				91
			],
			"name":"C_lip_upper_mid_068",
			"rotation":[
				0.41088107228279114,
				0.5766265988349915,
				-0.40852200984954834,
				0.5760107636451721
			],
			"scale":[
				0.9999999403953552,
				1,
				1
			],
			"translation":[
				9.485312461853027,
				0.7995799779891968,
				0.001372480415739119
			]
		},
		{
			"name":"L_lip_upper_outer_end_0167",
			"rotation":[
				-0.4078858494758606,
				-0.662547767162323,
				-0.5234772562980652,
				0.3473200500011444
			],
			"scale":[
				1,
				0.9999997615814209,
				0.9999999403953552
			],
			"translation":[
				-135.4058074951172,
				-24.912059783935547,
				-61.661766052246094
			]
		},
		{
			"children":[
				93
			],
			"name":"L_lip_upper_outer_069",
			"rotation":[
				-0.57535719871521,
				-0.7826871275901794,
				-0.05652325227856636,
				0.23058639466762543
			],
			"scale":[
				1.0000001192092896,
				1.0000003576278687,
				1
			],
			"translation":[
				8.626106262207031,
				0.5738550424575806,
				-1.434192180633545
			]
		},
		{
			"name":"L_lip_corner_end_0168",
			"rotation":[
				-0.14169500768184662,
				0.64899080991745,
				0.6517376899719238,
				0.36602097749710083
			],
			"scale":[
				0.9999999403953552,
				0.9999999403953552,
				1
			],
			"translation":[
				99.27408599853516,
				-23.351362228393555,
				-111.01292419433594
			]
		},
		{
			"children":[
				95
			],
			"name":"L_lip_corner_070",
			"rotation":[
				-0.3362516760826111,
				-0.238835871219635,
				-0.4780237674713135,
				0.7754905223846436
			],
			"scale":[
				1.0000001192092896,
				1.0000001192092896,
				1
			],
			"translation":[
				8.194344520568848,
				0.3740556538105011,
				-2.2895610332489014
			]
		},
		{
			"name":"C_nose_bridge_end_0169",
			"rotation":[
				-0.5308710932731628,
				-0.0055268919095396996,
				-0.004592217039316893,
				0.8474221229553223
			],
			"scale":[
				1,
				1.0000001192092896,
				1.0000001192092896
			],
			"translation":[
				-2.0665085315704346,
				-75.44840240478516,
				135.1418914794922
			]
		},
		{
			"children":[
				97
			],
			"name":"C_nose_bridge_071",
			"rotation":[
				0.309439092874527,
				0.6413803696632385,
				-0.30385109782218933,
				0.6328927278518677
			],
			"scale":[
				0.9999998807907104,
				1,
				1
			],
			"translation":[
				9.793755531311035,
				4.774223327636719,
				0.0030082445591688156
			]
		},
		{
			"name":"R_brow_mid_end_0170",
			"rotation":[
				-0.40239569544792175,
				0.3528079390525818,
				0.025231288745999336,
				0.8443741202354431
			],
			"scale":[
				1,
				0.9999999403953552,
				1
			],
			"translation":[
				49.441226959228516,
				-112.39549255371094,
				99.51395416259766
			]
		},
		{
			"children":[
				99
			],
			"name":"R_brow_mid_072",
			"rotation":[
				0.2265213280916214,
				0.37501102685928345,
				-0.20667500793933868,
				0.8748372793197632
			],
			"scale":[
				1,
				1,
				1.0000001192092896
			],
			"translation":[
				7.594405651092529,
				7.678863048553467,
				2.8827147483825684
			]
		},
		{
			"name":"R_brow_outer_end_0171",
			"rotation":[
				-0.3752582371234894,
				0.4234928488731384,
				-0.06210150197148323,
				0.8221791386604309
			],
			"scale":[
				1,
				1,
				0.9999999403953552
			],
			"translation":[
				33.010982513427734,
				-117.61225128173828,
				100.63446044921875
			]
		},
		{
			"children":[
				101
			],
			"name":"R_brow_outer_073",
			"rotation":[
				0.2761037051677704,
				0.3144579231739044,
				-0.12243033945560455,
				0.8999409675598145
			],
			"scale":[
				1,
				1,
				1.0000001192092896
			],
			"translation":[
				5.8373541831970215,
				7.529921531677246,
				4.9187331199646
			]
		},
		{
			"name":"R_cheek_inner_end_0172",
			"rotation":[
				-0.5328880548477173,
				0.5996189117431641,
				0.16474756598472595,
				0.5738863945007324
			],
			"scale":[
				1.0000001192092896,
				1.0000001192092896,
				1.000000238418579
			],
			"translation":[
				124.49971008300781,
				-64.28890228271484,
				61.738616943359375
			]
		},
		{
			"children":[
				103
			],
			"name":"R_cheek_inner_074",
			"rotation":[
				0.2607274651527405,
				0.010772675275802612,
				-0.3982791304588318,
				0.8793627619743347
			],
			"scale":[
				1,
				0.9999998807907104,
				1
			],
			"translation":[
				7.217135429382324,
				2.57446026802063,
				3.8129055500030518
			]
		},
		{
			"name":"R_lip_corner_end_0173",
			"rotation":[
				-0.15002478659152985,
				-0.6449616551399231,
				-0.6484662890434265,
				0.3755109906196594
			],
			"scale":[
				0.9999999403953552,
				0.9999997615814209,
				1
			],
			"translation":[
				-102.17111206054688,
				-23.846477508544922,
				-108.27394104003906
			]
		},
		{
			"children":[
				105
			],
			"name":"R_lip_corner_075",
			"rotation":[
				-0.48115047812461853,
				-0.7797245383262634,
				-0.32915887236595154,
				0.22842566668987274
			],
			"scale":[
				1,
				1.000000238418579,
				1
			],
			"translation":[
				8.147311210632324,
				0.3875821530818939,
				2.2438807487487793
			]
		},
		{
			"name":"C_jaw_end_0174",
			"rotation":[
				-0.7519540786743164,
				-0.0207868330180645,
				-0.02109656110405922,
				0.6585498452186584
			],
			"scale":[
				1.0000001192092896,
				1,
				1
			],
			"translation":[
				-8.872673034667969,
				18.183563232421875,
				149.54112243652344
			]
		},
		{
			"children":[
				107
			],
			"name":"C_jaw_076",
			"rotation":[
				0.49001169204711914,
				0.5379975438117981,
				-0.4636189937591553,
				0.5054746866226196
			],
			"scale":[
				1,
				1.0000001192092896,
				1
			],
			"translation":[
				3.5682520866394043,
				-0.363129585981369,
				0.04481741413474083
			]
		},
		{
			"name":"L_lip_lower_outer_end_0175",
			"rotation":[
				0.09280005842447281,
				0.6855940222740173,
				0.7138301134109497,
				0.10860780626535416
			],
			"scale":[
				1,
				1,
				0.9999999403953552
			],
			"translation":[
				3.6710689067840576,
				-1.410507321357727,
				-150.809814453125
			]
		},
		{
			"children":[
				109
			],
			"name":"L_lip_lower_outer_077",
			"rotation":[
				-0.5216323733329773,
				-0.4687030017375946,
				-0.3741760551929474,
				0.6068027019500732
			],
			"scale":[
				1,
				1.0000001192092896,
				1
			],
			"translation":[
				8.531593322753906,
				0.5620959997177124,
				-1.440902829170227
			]
		},
		{
			"name":"C_lip_lower_mid_end_0176",
			"rotation":[
				-0.7200180292129517,
				0.03988834097981453,
				0.04596085473895073,
				0.6912818551063538
			],
			"scale":[
				0.9999999403953552,
				0.9999999403953552,
				1.0000001192092896
			],
			"translation":[
				18.319190979003906,
				-1.5241247415542603,
				149.7203369140625
			]
		},
		{
			"children":[
				111
			],
			"name":"C_lip_lower_mid_078",
			"rotation":[
				0.4226345419883728,
				0.5106010437011719,
				-0.4809790551662445,
				0.5738691687583923
			],
			"scale":[
				1,
				1.0000001192092896,
				1
			],
			"translation":[
				9.48076057434082,
				0.7193429470062256,
				0.008129380643367767
			]
		},
		{
			"name":"R_lip_lower_outer_end_0177",
			"rotation":[
				0.06035970523953438,
				-0.6761069297790527,
				-0.7232022285461426,
				0.12733668088912964
			],
			"scale":[
				0.9999998211860657,
				0.9999997615814209,
				0.9999999403953552
			],
			"translation":[
				-15.074331283569336,
				1.0079658031463623,
				-150.01287841796875
			]
		},
		{
			"children":[
				113
			],
			"name":"R_lip_lower_outer_079",
			"rotation":[
				-0.40283510088920593,
				-0.6165750622749329,
				-0.5076327919960022,
				0.4470660984516144
			],
			"scale":[
				1,
				1.0000001192092896,
				1
			],
			"translation":[
				8.681007385253906,
				0.4976813495159149,
				1.4743320941925049
			]
		},
		{
			"name":"teeth_lower_end_0178",
			"rotation":[
				-0.8190553784370422,
				0.03662625700235367,
				0.037172507494688034,
				0.5713362097740173
			],
			"scale":[
				0.9999999403953552,
				0.9999998807907104,
				0.9999997615814209
			],
			"translation":[
				15.539865493774414,
				46.26359176635742,
				141.39788818359375
			]
		},
		{
			"children":[
				115
			],
			"name":"teeth_lower_080",
			"rotation":[
				0.5075550079345703,
				0.4370534420013428,
				-0.5540589094161987,
				0.49435919523239136
			],
			"scale":[
				0.9999999403953552,
				0.9999999403953552,
				1.0000001192092896
			],
			"translation":[
				7.638751983642578,
				-0.8934988379478455,
				0.1167593002319336
			]
		},
		{
			"name":"tongue_end_0158",
			"rotation":[
				-0.8507113456726074,
				-0.03649440035223961,
				-0.026906197890639305,
				0.523673951625824
			],
			"scale":[
				0.9999999403953552,
				1.0000001192092896,
				1.0000001192092896
			],
			"translation":[
				-13.589896202087402,
				64.59725189208984,
				134.923583984375
			]
		},
		{
			"children":[
				117
			],
			"name":"tongue_081",
			"rotation":[
				0.5728369951248169,
				0.46244826912879944,
				-0.5407412052154541,
				0.4069376587867737
			],
			"scale":[
				0.9999997615814209,
				0.9999998807907104,
				1
			],
			"translation":[
				5.125762462615967,
				-0.7502623796463013,
				-0.00963900052011013
			]
		},
		{
			"name":"R_eye_end_0180",
			"rotation":[
				0.006561870686709881,
				-0.6250061988830566,
				-0.7805823683738708,
				0.003929648082703352
			],
			"translation":[
				-2.3305563926696777,
				29.00641441345215,
				-154.1507110595703
			]
		},
		{
			"children":[
				119
			],
			"name":"R_eye_082",
			"rotation":[
				-0.4946439266204834,
				-0.5026541948318481,
				-0.5044828057289124,
				0.4981600344181061
			],
			"scale":[
				0.9999998211860657,
				0.9999997615814209,
				1
			],
			"translation":[
				5.841586589813232,
				6.1617207527160645,
				2.7363545894622803
			]
		},
		{
			"name":"R_eye_lid_upper_mid_end_0181",
			"rotation":[
				0.0010937555925920606,
				-0.7761982083320618,
				-0.6304864287376404,
				0.001433627912774682
			],
			"scale":[
				1.0000001192092896,
				0.9999997615814209,
				1
			],
			"translation":[
				-2.734182119369507,
				-38.463619232177734,
				-152.3264923095703
			]
		},
		{
			"children":[
				121
			],
			"name":"R_eye_lid_upper_mid_083",
			"rotation":[
				-0.3813513517379761,
				-0.5958139896392822,
				-0.3831136226654053,
				0.5939703583717346
			],
			"scale":[
				1.0000001192092896,
				1.0000003576278687,
				1.0000001192092896
			],
			"translation":[
				6.813894271850586,
				6.6060028076171875,
				2.740103006362915
			]
		},
		{
			"name":"R_eye_lid_lower_mid_end_0182",
			"rotation":[
				0.009319737553596497,
				-0.44114211201667786,
				-0.8973524570465088,
				0.008084800094366074
			],
			"translation":[
				-3.5929954051971436,
				90.36624145507812,
				-127.43582153320312
			]
		},
		{
			"children":[
				123
			],
			"name":"R_eye_lid_lower_mid_084",
			"rotation":[
				-0.5888518691062927,
				-0.38530081510543823,
				-0.6032185554504395,
				0.3753986060619354
			],
			"scale":[
				1.0000001192092896,
				1.000000238418579,
				1
			],
			"translation":[
				6.791024208068848,
				5.720578670501709,
				2.760162830352783
			]
		},
		{
			"name":"L_eye_end_0183",
			"rotation":[
				0.006809983868151903,
				0.6116006970405579,
				0.7911285161972046,
				0.0037271007895469666
			],
			"translation":[
				2.2678956985473633,
				34.24762725830078,
				-153.07235717773438
			]
		},
		{
			"children":[
				125
			],
			"name":"L_eye_085",
			"rotation":[
				-0.5131030082702637,
				-0.48972782492637634,
				-0.5029476284980774,
				0.49389851093292236
			],
			"scale":[
				1.0000001192092896,
				1.000000238418579,
				1
			],
			"translation":[
				5.841586112976074,
				6.161738872528076,
				-2.731889486312866
			]
		},
		{
			"name":"L_eye_lid_upper_mid_end_0184",
			"rotation":[
				0.0038768553640693426,
				0.7702487707138062,
				0.6376886963844299,
				0.007415644358843565
			],
			"scale":[
				0.9999998807907104,
				0.9999998807907104,
				1
			],
			"translation":[
				3.190014600753784,
				-35.634700775146484,
				-152.98162841796875
			]
		},
		{
			"children":[
				127
			],
			"name":"L_eye_lid_upper_mid_086",
			"rotation":[
				-0.39106595516204834,
				-0.5863684415817261,
				-0.3844545781612396,
				0.5961830019950867
			],
			"scale":[
				0.9999998807907104,
				0.9999998807907104,
				0.9999999403953552
			],
			"translation":[
				6.8102521896362305,
				6.582762241363525,
				-2.7481882572174072
			]
		},
		{
			"name":"L_eye_lid_lower_mid_end_0185",
			"rotation":[
				0.009516434744000435,
				0.42348018288612366,
				0.9058545827865601,
				0.001232975977472961
			],
			"scale":[
				1,
				0.9999999403953552,
				1.0000001192092896
			],
			"translation":[
				1.7199251651763916,
				95.32791137695312,
				-123.75767517089844
			]
		},
		{
			"children":[
				129
			],
			"name":"L_eye_lid_lower_mid_087",
			"rotation":[
				-0.6101787686347961,
				-0.3684835731983185,
				-0.5966103076934814,
				0.36872467398643494
			],
			"scale":[
				0.9999998807907104,
				1,
				1
			],
			"translation":[
				6.782861232757568,
				5.678787708282471,
				-2.742781162261963
			]
		},
		{
			"name":"teeth_upper_end_0186",
			"rotation":[
				-0.6113991141319275,
				-0.0047904122620821,
				-0.0048618740402162075,
				0.7912929654121399
			],
			"scale":[
				0.9999999403953552,
				1,
				0.9999999403953552
			],
			"translation":[
				-2.0488929748535156,
				-43.85807418823242,
				145.1236114501953
			]
		},
		{
			"children":[
				131
			],
			"name":"teeth_upper_088",
			"rotation":[
				0.37067711353302,
				0.6077512502670288,
				-0.36459463834762573,
				0.6002564430236816
			],
			"scale":[
				0.9999998211860657,
				1,
				0.9999998807907104
			],
			"translation":[
				7.434346675872803,
				1.1399898529052734,
				-0.005158207379281521
			]
		},
		{
			"name":"R_lip_upper_outer_end_0187",
			"rotation":[
				-0.43140897154808044,
				0.6488937139511108,
				0.5032069683074951,
				0.3736388385295868
			],
			"scale":[
				0.9999997019767761,
				0.9999995231628418,
				1.0000001192092896
			],
			"translation":[
				140.19793701171875,
				-25.285720825195312,
				-49.706016540527344
			]
		},
		{
			"children":[
				133
			],
			"name":"R_lip_upper_outer_089",
			"rotation":[
				-0.028880387544631958,
				-0.19906307756900787,
				-0.5766507983207703,
				0.7918420433998108
			],
			"scale":[
				1,
				0.9999999403953552,
				1
			],
			"translation":[
				8.664535522460938,
				0.6073605418205261,
				1.4648641347885132
			]
		},
		{
			"name":"dyn_hairBase_end_0188",
			"rotation":[
				3.638663415017618e-08,
				0.7100250124931335,
				0.7041764855384827,
				5.3605401006961984e-08
			],
			"scale":[
				1,
				0.9999999403953552,
				1
			],
			"translation":[
				1.0600945643091109e-05,
				0.4299164116382599,
				-152.0430450439453
			]
		},
		{
			"children":[
				135
			],
			"name":"dyn_hairBase_090",
			"rotation":[
				-0.4392050504684448,
				-0.5541651248931885,
				-0.43920519948005676,
				0.5541648864746094
			],
			"scale":[
				1.0000001192092896,
				1.000000238418579,
				1.0000001192092896
			],
			"translation":[
				-1.0728790584835224e-06,
				4.559766694001155e-06,
				1.9921685634471942e-08
			]
		},
		{
			"name":"hair_1_r_end_0189",
			"rotation":[
				0.6696441173553467,
				-0.612381100654602,
				-0.11329002678394318,
				0.40463751554489136
			],
			"scale":[
				1,
				1.0000001192092896,
				1
			],
			"translation":[
				123.01155853271484,
				-9.579014778137207,
				-105.40972900390625
			]
		},
		{
			"children":[
				137
			],
			"name":"hair_1_r_091",
			"rotation":[
				0.47069504857063293,
				-0.6710995435714722,
				-0.5339224338531494,
				0.20736058056354523
			],
			"scale":[
				1,
				0.9999997019767761,
				1
			],
			"translation":[
				6.819915771484375,
				11.862889289855957,
				0.08136489987373352
			]
		},
		{
			"name":"hair_1_r_2_end_0190",
			"rotation":[
				0.6774317622184753,
				-0.6484314799308777,
				-0.04841490089893341,
				0.34391704201698303
			],
			"scale":[
				0.9999999403953552,
				0.9999998807907104,
				1
			],
			"translation":[
				140.9049835205078,
				-16.599912643432617,
				-79.93022918701172
			]
		},
		{
			"children":[
				139
			],
			"name":"hair_1_r_2_092",
			"rotation":[
				0.5198250412940979,
				-0.6480668783187866,
				-0.48621901869773865,
				0.2708916664123535
			],
			"scale":[
				1.0000001192092896,
				1.0000001192092896,
				1.0000001192092896
			],
			"translation":[
				3.9389498233795166,
				11.769926071166992,
				6.483299732208252
			]
		},
		{
			"name":"hair_2_r_end_0191",
			"rotation":[
				0.7274565696716309,
				-0.47035419940948486,
				-0.2130545824766159,
				0.451864629983902
			],
			"scale":[
				1.0000001192092896,
				1,
				1
			],
			"translation":[
				84.27081298828125,
				27.950239181518555,
				-138.5791015625
			]
		},
		{
			"children":[
				141
			],
			"name":"hair_2_r_093",
			"rotation":[
				0.4337823688983917,
				-0.6077677607536316,
				-0.6594936847686768,
				0.08671396225690842
			],
			"scale":[
				1,
				1.0000001192092896,
				1
			],
			"translation":[
				4.079383850097656,
				13.692729949951172,
				-1.1253151893615723
			]
		},
		{
			"name":"hair_2_r_2_end_0192",
			"rotation":[
				0.8147807121276855,
				-0.03578878194093704,
				0.10685433447360992,
				0.5687123537063599
			],
			"translation":[
				35.72682189941406,
				58.76523971557617,
				-148.11245727539062
			]
		},
		{
			"children":[
				143
			],
			"name":"hair_2_r_2_094",
			"rotation":[
				-0.6950610876083374,
				0.35257139801979065,
				0.5392666459083557,
				0.31902188062667847
			],
			"scale":[
				1,
				0.9999999403953552,
				1
			],
			"translation":[
				0.38745060563087463,
				11.49130916595459,
				6.7151265144348145
			]
		},
		{
			"name":"hair_2_r_3_end_0193",
			"rotation":[
				0.8187960982322693,
				-0.00989713054150343,
				0.06970250606536865,
				0.5697513222694397
			],
			"scale":[
				1,
				0.9999998807907104,
				1
			],
			"translation":[
				22.126174926757812,
				54.312103271484375,
				-150.74533081054688
			]
		},
		{
			"children":[
				145
			],
			"name":"hair_2_r_3_095",
			"rotation":[
				-0.669826328754425,
				0.337703675031662,
				0.5703079104423523,
				0.3347204625606537
			],
			"scale":[
				0.9999997615814209,
				0.9999998807907104,
				0.9999998211860657
			],
			"translation":[
				-3.327305555343628,
				9.051712989807129,
				6.433606147766113
			]
		},
		{
			"name":"hair_3_r_end_0194",
			"rotation":[
				-0.8469080328941345,
				-0.4181691110134125,
				0.17183586955070496,
				0.2799175977706909
			],
			"scale":[
				1.0000001192092896,
				0.9999999403953552,
				0.9999998807907104
			],
			"translation":[
				-99.54912567138672,
				85.85198211669922,
				100.7869644165039
			]
		},
		{
			"children":[
				147
			],
			"name":"hair_3_r_096",
			"rotation":[
				-0.41968780755996704,
				-0.5434945225715637,
				0.7267575263977051,
				0.01730327308177948
			],
			"scale":[
				0.9999999403953552,
				1,
				1
			],
			"translation":[
				-2.9043703079223633,
				13.228663444519043,
				4.4731550216674805
			]
		},
		{
			"name":"hair_4_r_end_0195",
			"rotation":[
				-0.7964683771133423,
				-0.2639390826225281,
				0.16814805567264557,
				0.5173978209495544
			],
			"scale":[
				0.9999999403953552,
				1,
				1.0000001192092896
			],
			"translation":[
				-41.30968475341797,
				59.596622467041016,
				146.81878662109375
			]
		},
		{
			"children":[
				149
			],
			"name":"hair_4_r_097",
			"rotation":[
				0.3803078532218933,
				0.5983335375785828,
				-0.6580159664154053,
				0.2537281811237335
			],
			"scale":[
				0.9999998807907104,
				0.9999997019767761,
				0.9999999403953552
			],
			"translation":[
				-7.015423774719238,
				10.275153160095215,
				2.982593536376953
			]
		},
		{
			"name":"hair_5_r_end_0196",
			"rotation":[
				-0.7795386910438538,
				-0.13544119894504547,
				0.1784965991973877,
				0.584905207157135
			],
			"scale":[
				1,
				0.9999999403953552,
				1
			],
			"translation":[
				-2.358588695526123,
				52.20391845703125,
				154.19837951660156
			]
		},
		{
			"children":[
				151
			],
			"name":"hair_5_r_098",
			"rotation":[
				0.3659183979034424,
				0.5533345341682434,
				-0.638027548789978,
				0.39095455408096313
			],
			"scale":[
				1.0000001192092896,
				1.0000001192092896,
				1.0000001192092896
			],
			"translation":[
				-7.759840488433838,
				9.126218795776367,
				1.321752905845642
			]
		},
		{
			"name":"hair_lower_end_0197",
			"rotation":[
				-3.1087864726941916e-08,
				-0.7100248336791992,
				-0.704176664352417,
				5.360537969067991e-08
			],
			"scale":[
				1,
				0.9999999403953552,
				1
			],
			"translation":[
				-1.3780297194898594e-05,
				0.42994698882102966,
				-152.0430145263672
			]
		},
		{
			"children":[
				153
			],
			"name":"hair_lower_099",
			"rotation":[
				-0.43920502066612244,
				-0.5541650652885437,
				-0.439205139875412,
				0.5541649460792542
			],
			"scale":[
				1.0000001192092896,
				1.0000001192092896,
				1
			],
			"translation":[
				-9.179110747936647e-06,
				1.9729148334590718e-05,
				-3.637978807091713e-12
			]
		},
		{
			"children":[
				84,
				86,
				88,
				90,
				92,
				94,
				96,
				98,
				100,
				102,
				104,
				106,
				108,
				110,
				112,
				114,
				116,
				118,
				120,
				122,
				124,
				126,
				128,
				130,
				132,
				134,
				136,
				138,
				140,
				142,
				144,
				146,
				148,
				150,
				152,
				154
			],
			"name":"head_063",
			"rotation":[
				4.1389114358025836e-13,
				2.397804053089203e-07,
				1.7881399116959074e-07,
				1
			],
			"translation":[
				-2.1219260815996677e-05,
				5.391376495361328,
				-2.3838626361794013e-07
			]
		},
		{
			"children":[
				155
			],
			"name":"neck_02_062",
			"rotation":[
				-5.300973882071958e-09,
				-1.863260337131578e-07,
				0.05042771250009537,
				0.9987276792526245
			],
			"scale":[
				0.9999999403953552,
				0.9999999403953552,
				1
			],
			"translation":[
				1.811981201171875e-05,
				4.562671661376953,
				-4.768464805238182e-07
			]
		},
		{
			"children":[
				156
			],
			"name":"neck_01_061",
			"rotation":[
				1.4592123065426676e-09,
				-6.180231082453247e-08,
				-0.008252238854765892,
				0.9999659657478333
			],
			"translation":[
				-4.12603235244751,
				10.535760879516602,
				-3.3789262943173526e-06
			]
		},
		{
			"name":"collar_1_r_end_0198",
			"rotation":[
				-0.40050533413887024,
				-0.4875867962837219,
				0.7712368965148926,
				0.08395399153232574
			],
			"translation":[
				-36.270660400390625,
				77.24175262451172,
				114.6737060546875
			]
		},
		{
			"children":[
				158
			],
			"name":"collar_1_r_0100",
			"rotation":[
				0.320776104927063,
				-0.35937854647636414,
				0.8624089360237122,
				0.1555655151605606
			],
			"scale":[
				0.9999999403953552,
				1,
				1
			],
			"translation":[
				3.842484712600708,
				13.480412483215332,
				2.8401706218719482
			]
		},
		{
			"name":"collar_1_l_end_0179",
			"rotation":[
				-0.40050578117370605,
				0.48758670687675476,
				-0.7712367177009583,
				0.08395421504974365
			],
			"scale":[
				0.9999998807907104,
				0.9999996423721313,
				0.9999998807907104
			],
			"translation":[
				36.27070236206055,
				77.24186706542969,
				114.67372131347656
			]
		},
		{
			"children":[
				160
			],
			"name":"collar_1_l_0101",
			"rotation":[
				0.8624089360237122,
				-0.155565083026886,
				0.32077622413635254,
				0.3593786060810089
			],
			"scale":[
				1.0000001192092896,
				1,
				1.0000001192092896
			],
			"translation":[
				3.8424975872039795,
				13.480401992797852,
				-2.840177297592163
			]
		},
		{
			"children":[
				46,
				82,
				157,
				159,
				161
			],
			"name":"spine_05_08",
			"rotation":[
				4.514296492175163e-08,
				5.093328354632831e-07,
				-0.19364933669567108,
				0.9810708165168762
			],
			"translation":[
				-2.288819450768642e-05,
				10.014622688293457,
				-1.2050804798491299e-11
			]
		},
		{
			"name":"pistol_r_end_0200",
			"rotation":[
				-0.7394810318946838,
				0.6685985326766968,
				0.05542464554309845,
				0.05542541295289993
			],
			"scale":[
				1,
				1.0000001192092896,
				1
			],
			"translation":[
				120.54877471923828,
				-0.13273631036281586,
				-1.7512375116348267
			]
		},
		{
			"children":[
				163
			],
			"name":"pistol_r_0102",
			"rotation":[
				0.4652487337589264,
				-0.4533217251300812,
				-0.5828906297683716,
				0.48814091086387634
			],
			"scale":[
				0.9999999403953552,
				0.9999998211860657,
				0.9999998807907104
			],
			"translation":[
				1.8633919954299927,
				-1.4228227138519287,
				12.435528755187988
			]
		},
		{
			"name":"pistol_l_end_0201",
			"rotation":[
				-0.055424485355615616,
				0.05542499199509621,
				0.7394807934761047,
				0.6685987710952759
			],
			"scale":[
				1,
				1.0000001192092896,
				1
			],
			"translation":[
				120.54874420166016,
				-0.1328037977218628,
				1.751291036605835
			]
		},
		{
			"children":[
				165
			],
			"name":"pistol_l_0103",
			"rotation":[
				-0.4652489721775055,
				0.4533225893974304,
				-0.5828899145126343,
				0.4881408214569092
			],
			"scale":[
				1,
				1.0000001192092896,
				1
			],
			"translation":[
				1.8633756637573242,
				-1.4228229522705078,
				-12.435530662536621
			]
		},
		{
			"children":[
				162,
				164,
				166
			],
			"name":"spine_04_07",
			"rotation":[
				-6.249153017279241e-08,
				-1.6861999085904245e-07,
				-0.01315764244645834,
				0.9999134540557861
			],
			"translation":[
				-4.529956186161144e-06,
				8.102365493774414,
				-4.768434109791997e-07
			]
		},
		{
			"children":[
				167
			],
			"name":"spine_03_06",
			"rotation":[
				2.3790802661238786e-09,
				-4.085298321854225e-09,
				0.014875353313982487,
				0.9998893737792969
			],
			"scale":[
				0.9999999403953552,
				0.9999999403953552,
				1
			],
			"translation":[
				1.7881375242723152e-06,
				6.01043701171875,
				3.637978807091713e-12
			]
		},
		{
			"children":[
				168
			],
			"name":"spine_02_05",
			"rotation":[
				-1.8122071310244792e-07,
				-4.00565696168087e-08,
				0.021346470341086388,
				0.9997721910476685
			],
			"translation":[
				-3.933907464670483e-06,
				7.251859664916992,
				-4.768371127283899e-06
			]
		},
		{
			"children":[
				169
			],
			"name":"spine_01_04",
			"rotation":[
				0.06230715289711952,
				0.05792246386408806,
				-0.04446109011769295,
				0.9953823685646057
			],
			"translation":[
				0.5049635767936707,
				6.710361480712891,
				0.8233988285064697
			]
		},
		{
			"name":"ankle_back_l_end_0202",
			"rotation":[
				-0.7153680920600891,
				-5.838857759954408e-06,
				2.7726523512683343e-06,
				0.6987478733062744
			],
			"scale":[
				1,
				0.9999999403953552,
				0.9999999403953552
			],
			"translation":[
				-14.952096939086914,
				9.190705299377441,
				19.149682998657227
			]
		},
		{
			"children":[
				171
			],
			"name":"ankle_back_l_0107",
			"rotation":[
				0.6483234167098999,
				0.1988758146762848,
				-0.7071119546890259,
				0.20029446482658386
			],
			"scale":[
				0.9999991655349731,
				0.9999997019767761,
				1
			],
			"translation":[
				1.7881393432617188e-06,
				5.648106098175049,
				9.760260581970215e-06
			]
		},
		{
			"children":[
				172
			],
			"name":"calf_twist_01_l_0106",
			"rotation":[
				-0.014868322759866714,
				0.005871232599020004,
				-0.8628923296928406,
				0.5051349401473999
			],
			"scale":[
				1.0000001192092896,
				1,
				1
			],
			"translation":[
				0.06438079476356506,
				35.8128547668457,
				-0.14751236140727997
			]
		},
		{
			"name":"calf_twist_02_l_end_0203",
			"rotation":[
				0.678830087184906,
				0.05942336469888687,
				-0.7318866848945618,
				0.0007275289972312748
			],
			"scale":[
				0.9999980330467224,
				0.9999998807907104,
				0.9999976754188538
			],
			"translation":[
				-4.2674665451049805,
				31.527095794677734,
				16.653642654418945
			]
		},
		{
			"children":[
				174
			],
			"name":"calf_twist_02_l_0108",
			"rotation":[
				-0.0016360869631171227,
				-0.03169897943735123,
				-0.0020715193822979927,
				0.9994940161705017
			],
			"scale":[
				1,
				1.0000001192092896,
				0.9999999403953552
			],
			"translation":[
				0.07983255386352539,
				18.80641746520996,
				-0.05884620547294617
			]
		},
		{
			"name":"ball_l_end_0204",
			"rotation":[
				-0.5963573455810547,
				0.36596575379371643,
				0.5935828685760498,
				0.3976008892059326
			],
			"scale":[
				1,
				1.0000001192092896,
				1
			],
			"translation":[
				6.318356513977051,
				-7.751657962799072,
				15.71312427520752
			]
		},
		{
			"children":[
				176
			],
			"name":"ball_l_0110",
			"rotation":[
				0.05607050284743309,
				-0.06683596968650818,
				-0.6237744092941284,
				0.7767204642295837
			],
			"scale":[
				0.9999999403953552,
				0.9999999403953552,
				0.9999999403953552
			],
			"translation":[
				14.568471908569336,
				3.265578031539917,
				2.5830936431884766
			]
		},
		{
			"name":"ankle_out_l_end_0205",
			"rotation":[
				-0.4773922562599182,
				0.5073989033699036,
				-0.5677745938301086,
				0.4384917914867401
			],
			"scale":[
				1,
				0.9999998807907104,
				0.9999998807907104
			],
			"translation":[
				6.879988670349121,
				18.791000366210938,
				17.59554672241211
			]
		},
		{
			"children":[
				178
			],
			"name":"ankle_out_l_0111",
			"rotation":[
				0.6780939698219299,
				0.1232866495847702,
				0.346681147813797,
				0.6362399458885193
			],
			"scale":[
				1,
				1.0000001192092896,
				0.9999999403953552
			],
			"translation":[
				-5.172852039337158,
				7.866156101226807,
				-3.905546188354492
			]
		},
		{
			"name":"ankle_in_l_end_0206",
			"rotation":[
				-0.4999995827674866,
				-0.4999999403953552,
				0.499999463558197,
				0.500001072883606
			],
			"translation":[
				-5.274654865264893,
				-11.45482349395752,
				18.86705780029297
			]
		},
		{
			"children":[
				180
			],
			"name":"ankle_in_l_0112",
			"rotation":[
				-0.152701735496521,
				0.6373845338821411,
				-0.6959884166717529,
				0.2932972013950348
			],
			"scale":[
				0.9999998807907104,
				0.9999997019767761,
				0.9999998807907104
			],
			"translation":[
				-7.00916051864624,
				7.058925628662109,
				2.2521862983703613
			]
		},
		{
			"name":"ankle_front_l_end_0207",
			"rotation":[
				-0.034918833523988724,
				0.6582077741622925,
				-0.7518547773361206,
				0.016051335260272026
			],
			"scale":[
				0.9999999403953552,
				0.9999999403953552,
				0.9999999403953552
			],
			"translation":[
				15.896206855773926,
				3.314213991165161,
				18.450185775756836
			]
		},
		{
			"children":[
				182
			],
			"name":"ankle_front_l_0113",
			"rotation":[
				0.597576379776001,
				-0.27905601263046265,
				0.7024547457695007,
				0.2675584852695465
			],
			"scale":[
				1,
				0.9999999403953552,
				0.9999998807907104
			],
			"translation":[
				-2.3864474296569824,
				10.149703979492188,
				-0.9298070073127747
			]
		},
		{
			"children":[
				177,
				179,
				181,
				183
			],
			"name":"foot_l_0109",
			"rotation":[
				-0.08328726887702942,
				0.002700235927477479,
				0.9566305875778198,
				0.2791305482387543
			],
			"scale":[
				1.0000009536743164,
				1.0000001192092896,
				0.9999998807907104
			],
			"translation":[
				-0.14416387677192688,
				42.56262969970703,
				0.20785395801067352
			]
		},
		{
			"children":[
				173,
				175,
				184
			],
			"name":"calf_l_0105",
			"rotation":[
				0.018696578219532967,
				-0.0033434752840548754,
				-0.03954005986452103,
				0.999037504196167
			],
			"scale":[
				0.9999998807907104,
				1,
				1
			],
			"translation":[
				1.2188218533992767e-05,
				39.048439025878906,
				0.009987014345824718
			]
		},
		{
			"name":"suspender_l_end_0208",
			"rotation":[
				-0.5979738831520081,
				0.38830944895744324,
				-0.59437495470047,
				0.3719698190689087
			],
			"scale":[
				1,
				0.9999997615814209,
				0.9999998807907104
			],
			"translation":[
				2.6705234050750732,
				46.86003494262695,
				78.73859405517578
			]
		},
		{
			"children":[
				186
			],
			"name":"suspender_l_0115",
			"rotation":[
				0.8311470150947571,
				0.014006778597831726,
				-0.02658860757946968,
				0.5552400946617126
			],
			"scale":[
				0.9999999403953552,
				0.9999999403953552,
				0.9999999403953552
			],
			"translation":[
				1.6093254089355469e-06,
				22.15287971496582,
				-0.00038211047649383545
			]
		},
		{
			"children":[
				187
			],
			"name":"thigh_twist_01_l_0114",
			"rotation":[
				0.034843284636735916,
				-0.03623580560088158,
				0.9987271428108215,
				0.004128153435885906
			],
			"scale":[
				1.0000001192092896,
				1.000000238418579,
				1.0000067949295044
			],
			"translation":[
				8.44709575176239e-06,
				21.630300521850586,
				0.005531194154173136
			]
		},
		{
			"children":[
				185,
				188
			],
			"name":"thigh_l_0104",
			"rotation":[
				0.055724650621414185,
				-0.11797221750020981,
				0.9890772104263306,
				0.06858263164758682
			],
			"scale":[
				0.9999990463256836,
				0.9999998807907104,
				0.9999977350234985
			],
			"translation":[
				-1.2918411493301392,
				-1.5143955945968628,
				-7.918524265289307
			]
		},
		{
			"name":"ankle_back_r_end_0209",
			"rotation":[
				-0.7153680920600891,
				-1.1557861398614477e-05,
				-4.586726390698459e-06,
				0.6987478137016296
			],
			"translation":[
				14.951349258422852,
				9.191198348999023,
				19.15003204345703
			]
		},
		{
			"children":[
				190
			],
			"name":"ankle_back_r_0120",
			"rotation":[
				0.601099967956543,
				0.22804947197437286,
				-0.747665286064148,
				0.1663399487733841
			],
			"scale":[
				0.9999997019767761,
				0.9999998807907104,
				1
			],
			"translation":[
				-9.775161743164062e-06,
				5.648220539093018,
				-7.152557373046875e-07
			]
		},
		{
			"children":[
				191
			],
			"name":"calf_twist_01_r_0119",
			"rotation":[
				-0.12008477747440338,
				-0.07946983724832535,
				-0.8546303510665894,
				0.49886995553970337
			],
			"scale":[
				0.9999999403953552,
				0.9999999403953552,
				1.0000001192092896
			],
			"translation":[
				0.065912626683712,
				35.81300735473633,
				0.1473911851644516
			]
		},
		{
			"name":"calf_twist_02_r_end_0210",
			"rotation":[
				0.7174035310745239,
				0.001984231872484088,
				-0.6941187977790833,
				0.05939216539263725
			],
			"scale":[
				1.000004529953003,
				1,
				1.0000042915344238
			],
			"translation":[
				-4.96631383895874,
				31.5270938873291,
				-16.45846176147461
			]
		},
		{
			"children":[
				193
			],
			"name":"calf_twist_02_r_0121",
			"rotation":[
				0.0015838372055441141,
				0.01583685725927353,
				-0.0021134126000106335,
				0.9998711347579956
			],
			"scale":[
				1,
				1,
				0.9999999403953552
			],
			"translation":[
				0.08044019341468811,
				18.806488037109375,
				0.0583052933216095
			]
		},
		{
			"name":"ball_r_end_0211",
			"rotation":[
				-0.622309684753418,
				0.3790406584739685,
				0.5663147568702698,
				0.38515767455101013
			],
			"scale":[
				0.9999998807907104,
				0.9999999403953552,
				0.9999998807907104
			],
			"translation":[
				7.837546348571777,
				-7.751756191253662,
				-15.013079643249512
			]
		},
		{
			"children":[
				195
			],
			"name":"ball_r_0123",
			"rotation":[
				0.03210696578025818,
				0.03407221660017967,
				-0.6254669427871704,
				0.7788448929786682
			],
			"scale":[
				0.9999999403953552,
				0.9999998211860657,
				0.9999998807907104
			],
			"translation":[
				14.79541301727295,
				3.2655951976776123,
				0.11197473108768463
			]
		},
		{
			"name":"ankle_front_r_end_0212",
			"rotation":[
				-0.034919075667858124,
				-0.6582081913948059,
				0.751854419708252,
				0.01605142280459404
			],
			"translation":[
				-15.896174430847168,
				3.314073324203491,
				18.450159072875977
			]
		},
		{
			"children":[
				197
			],
			"name":"ankle_front_r_0124",
			"rotation":[
				0.6448959112167358,
				-0.29194509983062744,
				0.6592782139778137,
				0.25343573093414307
			],
			"scale":[
				0.9999994039535522,
				0.9999995231628418,
				0.9999999403953552
			],
			"translation":[
				-2.515822649002075,
				10.149856567382812,
				0.4798303246498108
			]
		},
		{
			"name":"ankle_in_r_end_0213",
			"rotation":[
				-0.5000017881393433,
				0.5000008940696716,
				-0.49999839067459106,
				0.49999892711639404
			],
			"scale":[
				1,
				0.9999999403953552,
				1
			],
			"translation":[
				5.274825096130371,
				-11.454758644104004,
				18.867023468017578
			]
		},
		{
			"children":[
				199
			],
			"name":"ankle_in_r_0125",
			"rotation":[
				0.6791208982467651,
				0.23380781710147858,
				0.2156732678413391,
				0.6615237593650818
			],
			"scale":[
				0.9999999403953552,
				1,
				1.0000001192092896
			],
			"translation":[
				-6.48211669921875,
				7.0590901374816895,
				-3.4904627799987793
			]
		},
		{
			"name":"ankle_out_r_end_0214",
			"rotation":[
				-0.477390855550766,
				-0.5074031352996826,
				0.5677737593650818,
				0.43848949670791626
			],
			"scale":[
				0.9999998807907104,
				0.9999997615814209,
				1
			],
			"translation":[
				-6.880273342132568,
				18.790790557861328,
				17.595565795898438
			]
		},
		{
			"children":[
				201
			],
			"name":"ankle_out_r_0126",
			"rotation":[
				-0.2832511067390442,
				0.6223103404045105,
				-0.7069424986839294,
				0.18091712892055511
			],
			"scale":[
				0.9999999403953552,
				0.9999997615814209,
				0.9999999403953552
			],
			"translation":[
				-5.797417163848877,
				7.866303443908691,
				2.8986291885375977
			]
		},
		{
			"children":[
				196,
				198,
				200,
				202
			],
			"name":"foot_r_0122",
			"rotation":[
				0.0005295707960613072,
				0.024271488189697266,
				0.9602502584457397,
				0.2780827581882477
			],
			"scale":[
				0.9999997615814209,
				1,
				1
			],
			"translation":[
				-0.14633086323738098,
				42.562747955322266,
				-0.20567190647125244
			]
		},
		{
			"children":[
				192,
				194,
				203
			],
			"name":"calf_r_0117",
			"rotation":[
				-0.018785184249281883,
				-0.001880201860330999,
				-0.039442453533411026,
				0.9990434646606445
			],
			"scale":[
				0.9999998807907104,
				0.9999998807907104,
				0.9999999403953552
			],
			"translation":[
				1.8808990716934204e-05,
				39.04863739013672,
				-0.00018788893066812307
			]
		},
		{
			"name":"thigh_flap_end_0215",
			"rotation":[
				-0.5301417112350464,
				-0.49019014835357666,
				0.5748602747917175,
				0.38496634364128113
			],
			"scale":[
				1.0000001192092896,
				0.9999999403953552,
				1
			],
			"translation":[
				-7.354426860809326,
				35.12495422363281,
				64.67082977294922
			]
		},
		{
			"children":[
				205
			],
			"name":"thigh_flap_0128",
			"rotation":[
				-0.6527256369590759,
				0.009168796241283417,
				-0.7574228644371033,
				0.013260199688374996
			],
			"scale":[
				1,
				1,
				1.000000238418579
			],
			"translation":[
				3.9987266063690186e-05,
				10.035181045532227,
				4.0531158447265625e-06
			]
		},
		{
			"children":[
				206
			],
			"name":"thigh_twist_01_r_0127",
			"rotation":[
				0.4483567178249359,
				0.4482332170009613,
				0.5937872529029846,
				0.4954594075679779
			],
			"scale":[
				0.9999999403953552,
				0.9999999403953552,
				1
			],
			"translation":[
				1.184176653623581e-05,
				21.630277633666992,
				-0.00010551580635365099
			]
		},
		{
			"children":[
				204,
				207
			],
			"name":"thigh_r_0116",
			"rotation":[
				0.06250429898500443,
				-0.00411006947979331,
				0.9961181282997131,
				0.0618467703461647
			],
			"scale":[
				0.9999953508377075,
				1,
				1
			],
			"translation":[
				0.40963393449783325,
				-3.51664662361145,
				7.357285022735596
			]
		},
		{
			"name":"grenade_2_end_0216",
			"rotation":[
				0.23453299701213837,
				0.4588368535041809,
				0.3956007659435272,
				0.7602388262748718
			],
			"scale":[
				1.0000001192092896,
				1.0000001192092896,
				1
			],
			"translation":[
				36.59437942504883,
				-70.0936508178711,
				-66.68013763427734
			]
		},
		{
			"children":[
				209
			],
			"name":"grenade_2_0129",
			"rotation":[
				-0.3836168944835663,
				0.2978459596633911,
				-0.12811125814914703,
				0.8647041916847229
			],
			"scale":[
				0.9999998807907104,
				1.0000001192092896,
				1
			],
			"translation":[
				-0.11395573616027832,
				11.01419734954834,
				-12.109293937683105
			]
		},
		{
			"name":"grenade_3_end_0217",
			"rotation":[
				0.09020570665597916,
				-0.17985770106315613,
				0.4395349621772766,
				0.8753988742828369
			],
			"scale":[
				0.9999999403953552,
				1.0000001192092896,
				1
			],
			"translation":[
				74.513671875,
				-71.3404769897461,
				0.6661986112594604
			]
		},
		{
			"children":[
				211
			],
			"name":"grenade_3_0130",
			"rotation":[
				-0.31002184748649597,
				0.809727668762207,
				-0.20875580608844757,
				0.4523810148239136
			],
			"scale":[
				1,
				1,
				0.9999999403953552
			],
			"translation":[
				-4.8522114753723145,
				11.164422035217285,
				-9.583321571350098
			]
		},
		{
			"name":"grenade_1_end_0218",
			"rotation":[
				0.17710690200328827,
				-0.38315606117248535,
				0.39494815468788147,
				0.8159905076026917
			],
			"scale":[
				1.0000001192092896,
				1.0000001192092896,
				1
			],
			"translation":[
				72.31463623046875,
				-72.8853530883789,
				1.7232624292373657
			]
		},
		{
			"children":[
				213
			],
			"name":"grenade_1_0131",
			"rotation":[
				-0.3392556607723236,
				0.8961194753646851,
				-0.09661984443664551,
				0.2693326473236084
			],
			"scale":[
				1,
				1.0000001192092896,
				1
			],
			"translation":[
				-7.916985034942627,
				10.696099281311035,
				-5.06805419921875
			]
		},
		{
			"name":"waist_l_end_0199",
			"rotation":[
				-0.0985502228140831,
				0.6217622756958008,
				-0.7763003706932068,
				0.03251562640070915
			],
			"scale":[
				0.9999999403953552,
				1.000000238418579,
				1.0000001192092896
			],
			"translation":[
				9.417263984680176,
				31.768705368041992,
				97.8992919921875
			]
		},
		{
			"children":[
				215
			],
			"name":"waist_l_0132",
			"rotation":[
				0.645562469959259,
				-0.45524877309799194,
				0.38540011644363403,
				0.4769323170185089
			],
			"scale":[
				0.9999999403953552,
				1.0000001192092896,
				1
			],
			"translation":[
				9.806889533996582,
				9.091586112976074,
				-3.6451644897460938
			]
		},
		{
			"name":"waist_r_end_0219",
			"rotation":[
				-0.09854946285486221,
				-0.6217623353004456,
				0.7763004899024963,
				0.03251613304018974
			],
			"scale":[
				0.9999998807907104,
				0.9999997019767761,
				0.9999999403953552
			],
			"translation":[
				-9.417081832885742,
				31.768674850463867,
				97.89925384521484
			]
		},
		{
			"children":[
				217
			],
			"name":"waist_r_0133",
			"rotation":[
				0.5094985961914062,
				-0.5034566521644592,
				0.5322980880737305,
				0.4512220621109009
			],
			"scale":[
				1,
				1.0000001192092896,
				1
			],
			"translation":[
				10.617082595825195,
				8.138052940368652,
				3.6288843154907227
			]
		},
		{
			"name":"waist_bck_r_end_0220",
			"rotation":[
				-0.7071066498756409,
				-2.4408356225080752e-08,
				-7.338272922652322e-08,
				0.70710688829422
			],
			"scale":[
				1,
				0.9999999403953552,
				0.9999999403953552
			],
			"translation":[
				1.5749801397323608,
				9.267655372619629,
				106.4709701538086
			]
		},
		{
			"children":[
				219
			],
			"name":"waist_bck_r_0134",
			"rotation":[
				0.5297237634658813,
				0.5258861780166626,
				-0.5275684595108032,
				0.4055958390235901
			],
			"scale":[
				0.9999998211860657,
				0.9999998807907104,
				0.9999999403953552
			],
			"translation":[
				-6.493221759796143,
				13.951576232910156,
				4.1502203941345215
			]
		},
		{
			"name":"waist_bck_l_end_0221",
			"rotation":[
				-0.7071066498756409,
				-1.224385481890522e-09,
				-7.685078173835791e-08,
				0.70710688829422
			],
			"translation":[
				-1.5750024318695068,
				9.267677307128906,
				106.4709243774414
			]
		},
		{
			"children":[
				221
			],
			"name":"waist_bck_l_0135",
			"rotation":[
				0.5297236442565918,
				0.5258862376213074,
				-0.527568519115448,
				0.405595988035202
			],
			"scale":[
				1,
				1,
				0.9999999403953552
			],
			"translation":[
				-6.838993549346924,
				14.358537673950195,
				1.0458320379257202
			]
		},
		{
			"name":"waist_2_r_end_0222",
			"rotation":[
				-0.6805590391159058,
				-0.2844301462173462,
				0.3523709774017334,
				0.5759979486465454
			],
			"scale":[
				0.9999997019767761,
				1,
				1
			],
			"translation":[
				2.4390783309936523,
				29.71770477294922,
				104.85987854003906
			]
		},
		{
			"children":[
				223
			],
			"name":"waist_2_r_0136",
			"rotation":[
				0.23851369321346283,
				0.6472959518432617,
				-0.7157200574874878,
				0.10892179608345032
			],
			"scale":[
				1,
				0.9999998807907104,
				1.0000001192092896
			],
			"translation":[
				-2.3175277709960938,
				14.577195167541504,
				11.37517261505127
			]
		},
		{
			"name":"waist_1_r_end_0223",
			"rotation":[
				-0.35847049951553345,
				-0.5919114351272583,
				0.6702582836151123,
				0.2681299149990082
			],
			"scale":[
				0.9999999403953552,
				0.999999463558197,
				0.9999998807907104
			],
			"translation":[
				-8.34675407409668,
				26.89716339111328,
				102.33941650390625
			]
		},
		{
			"children":[
				225
			],
			"name":"waist_1_r_0137",
			"rotation":[
				0.2379586100578308,
				-0.6496073007583618,
				0.6586816906929016,
				0.2958454489707947
			],
			"scale":[
				1,
				0.9999999403953552,
				1
			],
			"translation":[
				8.48613166809082,
				10.381278991699219,
				9.943613052368164
			]
		},
		{
			"children":[
				170,
				189,
				208,
				210,
				212,
				214,
				216,
				218,
				220,
				222,
				224,
				226
			],
			"name":"pelvis_03",
			"rotation":[
				-0.08777161687612534,
				-0.7449050545692444,
				0.0011895293137058616,
				0.6613707542419434
			],
			"scale":[
				0.9999998807907104,
				0.9999998211860657,
				0.9999999403953552
			],
			"translation":[
				-8.888900993042625e-07,
				93.11907958984375,
				-0.7071303129196167
			]
		},
		{
			"children":[
				227
			],
			"name":"_rootJoint",
			"rotation":[
				-8.557151431887178e-09,
				4.580753198979437e-08,
				-7.839632975182188e-16,
				1
			]
		},
		{
			"mesh":0,
			"name":"backhead",
			"skin":0
		},
		{
			"mesh":1,
			"name":"hair",
			"skin":0
		},
		{
			"mesh":2,
			"name":"head",
			"skin":0
		},
		{
			"mesh":3,
			"name":"pistol",
			"skin":0
		},
		{
			"mesh":4,
			"name":"torso",
			"skin":0
		},
		{
			"name":"unknown2",
			"rotation":[
				0.06765549629926682,
				-0.5393602252006531,
				-0.026503218337893486,
				0.8389343619346619
			],
			"scale":[
				100.00000762939453,
				99.9999771118164,
				100.0000228881836
			],
			"translation":[
				1989.2916259765625,
				8754.9736328125,
				1147.0048828125
			]
		},
		{
			"children":[
				229,
				230,
				231,
				232,
				233,
				234,
				228
			],
			"name":"skeleton"
		},
		{
			"children":[
				235
			],
			"name":"M_MED_Cat_Burglar.ao",
			"rotation":[
				-0.70710688829422,
				0,
				0,
				0.7071066498756409
			]
		},
		{
			"name":"M_MED_Cat_Burglar.mo",
			"rotation":[
				-0.70710688829422,
				0,
				0,
				0.7071066498756409
			]
		},
		{
			"name":"SK_Top_Tier_Pistol.mo",
			"rotation":[
				0.06765547394752502,
				-0.5393602252006531,
				-0.02650325931608677,
				0.8389343619346619
			],
			"translation":[
				1989.2900390625,
				8754.974609375,
				1147.0045166015625
			]
		},
		{
			"children":[
				236,
				237,
				238
			],
			"name":"RootNode"
		}
	],
	"materials":[
		{
			"doubleSided":true,
			"name":"M_MED_Cat_Burglar_FaceAcc_Hair_2",
			"pbrMetallicRoughness":{
				"baseColorTexture":{
					"index":0
				},
				"metallicFactor":0,
				"metallicRoughnessTexture":{
					"index":1
				},
				"roughnessFactor":0.8040408492088318
			}
		},
		{
			"doubleSided":true,
			"name":"M_MED_Cat_Burglar_FaceAcc_Hair",
			"pbrMetallicRoughness":{
				"baseColorTexture":{
					"index":2
				},
				"metallicRoughnessTexture":{
					"index":3
				},
				"roughnessFactor":0.5409680008888245
			}
		},
		{
			"doubleSided":true,
			"emissiveFactor":[
				1,
				1,
				1
			],
			"emissiveTexture":{
				"index":4
			},
			"name":"M_MED_Cat_Burglar_Human_Head",
			"pbrMetallicRoughness":{
				"baseColorTexture":{
					"index":5
				},
				"metallicFactor":0,
				"metallicRoughnessTexture":{
					"index":6
				},
				"roughnessFactor":0.39462652802467346
			}
		},
		{
			"doubleSided":true,
			"name":"M_Top_Tier_Pistol",
			"pbrMetallicRoughness":{
				"baseColorFactor":[
					1,
					0.63314288854599,
					0.10286910086870193,
					1
				],
				"metallicRoughnessTexture":{
					"index":7
				},
				"roughnessFactor":0.23812656104564667
			}
		},
		{
			"doubleSided":true,
			"name":"M_MED_Cat_Burglar_Body",
			"pbrMetallicRoughness":{
				"baseColorTexture":{
					"index":8
				},
				"metallicRoughnessTexture":{
					"index":9
				},
				"roughnessFactor":0.5775533318519592
			}
		}
	],
	"meshes":[
		{
			"name":"M_MED_Cat_Burglar.mo_M_MED_Cat_Burglar_FaceAcc_Hair_2_0",
			"primitives":[
				{
					"attributes":{
						"POSITION":0,
						"NORMAL":1,
						"TEXCOORD_0":2,
						"JOINTS_0":3,
						"WEIGHTS_0":4
					},
					"indices":5,
					"material":0
				}
			]
		},
		{
			"name":"M_MED_Cat_Burglar.mo_M_MED_Cat_Burglar_FaceAcc_Hair_0",
			"primitives":[
				{
					"attributes":{
						"POSITION":7,
						"NORMAL":8,
						"TEXCOORD_0":9,
						"JOINTS_0":10,
						"WEIGHTS_0":11
					},
					"indices":12,
					"material":1
				}
			]
		},
		{
			"name":"M_MED_Cat_Burglar.mo_M_MED_Cat_Burglar_Human_Head_0",
			"primitives":[
				{
					"attributes":{
						"POSITION":13,
						"NORMAL":14,
						"TEXCOORD_0":15,
						"JOINTS_0":16,
						"WEIGHTS_0":17
					},
					"indices":18,
					"material":2
				}
			]
		},
		{
			"name":"SK_Top_Tier_Pistol.mo_M_Top_Tier_Pistol_0",
			"primitives":[
				{
					"attributes":{
						"POSITION":19,
						"NORMAL":20,
						"TEXCOORD_0":21,
						"JOINTS_0":22,
						"WEIGHTS_0":23
					},
					"indices":24,
					"material":3
				}
			]
		},
		{
			"name":"M_MED_Cat_Burglar.mo_M_MED_Cat_Burglar_Body_0",
			"primitives":[
				{
					"attributes":{
						"POSITION":25,
						"NORMAL":26,
						"TEXCOORD_0":27,
						"JOINTS_0":28,
						"WEIGHTS_0":29
					},
					"indices":30,
					"material":4
				}
			]
		}
	],
	"textures":[
		{
			"sampler":0,
			"source":0
		},
		{
			"sampler":0,
			"source":1
		},
		{
			"sampler":0,
			"source":0
		},
		{
			"sampler":0,
			"source":1
		},
		{
			"sampler":0,
			"source":2
		},
		{
			"sampler":0,
			"source":3
		},
		{
			"sampler":0,
			"source":4
		},
		{
			"sampler":0,
			"source":5
		},
		{
			"sampler":0,
			"source":6
		},
		{
			"sampler":0,
			"source":7
		}
	],
	"images":[
		{
			"mimeType":"image/png",
			"name":"Image_5",
			"uri":"temp/Image_5.png"
		},
		{
			"mimeType":"image/png",
			"name":"Image_6",
			"uri":"temp/Image_6.png"
		},
		{
			"mimeType":"image/png",
			"name":"Image_4",
			"uri":"temp/Image_4.png"
		},
		{
			"mimeType":"image/png",
			"name":"Image_2",
			"uri":"temp/Image_2.png"
		},
		{
			"mimeType":"image/png",
			"name":"Image_3",
			"uri":"temp/Image_3.png"
		},
		{
			"mimeType":"image/png",
			"name":"Image_7",
			"uri":"temp/Image_7.png"
		},
		{
			"mimeType":"image/png",
			"name":"Image_0",
			"uri":"temp/Image_0.png"
		},
		{
			"mimeType":"image/png",
			"name":"Image_1",
			"uri":"temp/Image_1.png"
		}
	],
	"skins":[
		{
			"inverseBindMatrices":6,
			"joints":[
				228,
				227,
				170,
				169,
				168,
				167,
				162,
				46,
				45,
				40,
				35,
				4,
				3,
				2,
				1,
				0,
				9,
				8,
				7,
				6,
				5,
				14,
				13,
				12,
				11,
				10,
				19,
				18,
				17,
				16,
				15,
				23,
				22,
				21,
				20,
				34,
				33,
				32,
				25,
				24,
				27,
				26,
				29,
				28,
				31,
				30,
				37,
				36,
				39,
				38,
				42,
				41,
				44,
				43,
				82,
				81,
				76,
				71,
				51,
				50,
				49,
				48,
				47,
				56,
				55,
				54,
				53,
				52,
				61,
				60,
				59,
				58,
				57,
				66,
				65,
				64,
				63,
				62,
				70,
				69,
				68,
				67,
				73,
				72,
				75,
				74,
				78,
				77,
				80,
				79,
				157,
				156,
				155,
				84,
				83,
				86,
				85,
				88,
				87,
				90,
				89,
				92,
				91,
				94,
				93,
				96,
				95,
				98,
				97,
				100,
				99,
				102,
				101,
				104,
				103,
				106,
				105,
				108,
				107,
				110,
				109,
				112,
				111,
				114,
				113,
				116,
				115,
				118,
				117,
				120,
				119,
				122,
				121,
				124,
				123,
				126,
				125,
				128,
				127,
				130,
				129,
				132,
				131,
				134,
				133,
				136,
				135,
				138,
				137,
				140,
				139,
				142,
				141,
				144,
				143,
				146,
				145,
				148,
				147,
				150,
				149,
				152,
				151,
				154,
				153,
				159,
				158,
				161,
				160,
				164,
				163,
				166,
				165,
				189,
				185,
				173,
				172,
				171,
				175,
				174,
				184,
				177,
				176,
				179,
				178,
				181,
				180,
				183,
				182,
				188,
				187,
				186,
				208,
				204,
				192,
				191,
				190,
				194,
				193,
				203,
				196,
				195,
				198,
				197,
				200,
				199,
				202,
				201,
				207,
				206,
				205,
				210,
				209,
				212,
				211,
				214,
				213,
				216,
				215,
				218,
				217,
				220,
				219,
				222,
				221,
				224,
				223,
				226,
				225
			],
			"name":"skeleton"
		}
	],
	"accessors":[
		{
			"bufferView":0,
			"componentType":5126,
			"count":531,
			"max":[
				6.8309125900268555,
				6.0451836585998535,
				-150.9623260498047
			],
			"min":[
				-7.0210771560668945,
				-7.595004081726074,
				-164.13710021972656
			],
			"type":"VEC3"
		},
		{
			"bufferView":1,
			"componentType":5126,
			"count":531,
			"type":"VEC3"
		},
		{
			"bufferView":2,
			"componentType":5126,
			"count":531,
			"type":"VEC2"
		},
		{
			"bufferView":3,
			"componentType":5121,
			"count":531,
			"type":"VEC4"
		},
		{
			"bufferView":4,
			"componentType":5126,
			"count":531,
			"type":"VEC4"
		},
		{
			"bufferView":5,
			"componentType":5123,
			"count":2325,
			"type":"SCALAR"
		},
		{
			"bufferView":6,
			"componentType":5126,
			"count":229,
			"type":"MAT4"
		},
		{
			"bufferView":7,
			"componentType":5126,
			"count":1909,
			"max":[
				7.062592506408691,
				8.461365699768066,
				-158.53695678710938
			],
			"min":[
				-7.434541702270508,
				-8.034174919128418,
				-167.85317993164062
			],
			"type":"VEC3"
		},
		{
			"bufferView":8,
			"componentType":5126,
			"count":1909,
			"type":"VEC3"
		},
		{
			"bufferView":9,
			"componentType":5126,
			"count":1909,
			"type":"VEC2"
		},
		{
			"bufferView":10,
			"componentType":5121,
			"count":1909,
			"type":"VEC4"
		},
		{
			"bufferView":11,
			"componentType":5126,
			"count":1909,
			"type":"VEC4"
		},
		{
			"bufferView":12,
			"componentType":5123,
			"count":9780,
			"type":"SCALAR"
		},
		{
			"bufferView":13,
			"componentType":5126,
			"count":3243,
			"max":[
				10.174002647399902,
				9.822000503540039,
				-135.56224060058594
			],
			"min":[
				-10.175082206726074,
				-11.13503646850586,
				-165.7869415283203
			],
			"type":"VEC3"
		},
		{
			"bufferView":14,
			"componentType":5126,
			"count":3243,
			"type":"VEC3"
		},
		{
			"bufferView":15,
			"componentType":5126,
			"count":3243,
			"type":"VEC2"
		},
		{
			"bufferView":16,
			"componentType":5121,
			"count":3243,
			"type":"VEC4"
		},
		{
			"bufferView":17,
			"componentType":5126,
			"count":3243,
			"type":"VEC4"
		},
		{
			"bufferView":18,
			"componentType":5123,
			"count":17592,
			"type":"SCALAR"
		},
		{
			"bufferView":19,
			"componentType":5126,
			"count":9440,
			"max":[
				1792.4627685546875,
				1168.7967529296875,
				-9732.1826171875
			],
			"min":[
				1772.1163330078125,
				1157.1636962890625,
				-9766.6611328125
			],
			"type":"VEC3"
		},
		{
			"bufferView":20,
			"componentType":5126,
			"count":9440,
			"type":"VEC3"
		},
		{
			"bufferView":21,
			"componentType":5126,
			"count":9440,
			"type":"VEC2"
		},
		{
			"bufferView":22,
			"componentType":5121,
			"count":9440,
			"type":"VEC4"
		},
		{
			"bufferView":23,
			"componentType":5126,
			"count":9440,
			"type":"VEC4"
		},
		{
			"bufferView":24,
			"componentType":5123,
			"count":9501,
			"type":"SCALAR"
		},
		{
			"bufferView":25,
			"componentType":5126,
			"count":14915,
			"max":[
				59.664772033691406,
				16.708534240722656,
				0.027622178196907043
			],
			"min":[
				-59.664764404296875,
				-15.992280006408691,
				-148.79791259765625
			],
			"type":"VEC3"
		},
		{
			"bufferView":26,
			"componentType":5126,
			"count":14915,
			"type":"VEC3"
		},
		{
			"bufferView":27,
			"componentType":5126,
			"count":14915,
			"type":"VEC2"
		},
		{
			"bufferView":28,
			"componentType":5121,
			"count":14915,
			"type":"VEC4"
		},
		{
			"bufferView":29,
			"componentType":5126,
			"count":14915,
			"type":"VEC4"
		},
		{
			"bufferView":30,
			"componentType":5123,
			"count":73554,
			"type":"SCALAR"
		}
	],
	"bufferViews":[
		{
			"buffer":0,
			"byteLength":6372,
			"byteOffset":0,
			"target":34962
		},
		{
			"buffer":0,
			"byteLength":6372,
			"byteOffset":6372,
			"target":34962
		},
		{
			"buffer":0,
			"byteLength":4248,
			"byteOffset":12744,
			"target":34962
		},
		{
			"buffer":0,
			"byteLength":2124,
			"byteOffset":16992,
			"target":34962
		},
		{
			"buffer":0,
			"byteLength":8496,
			"byteOffset":19116,
			"target":34962
		},
		{
			"buffer":0,
			"byteLength":4650,
			"byteOffset":27612,
			"target":34963
		},
		{
			"buffer":0,
			"byteLength":14656,
			"byteOffset":32264
		},
		{
			"buffer":0,
			"byteLength":22908,
			"byteOffset":46920,
			"target":34962
		},
		{
			"buffer":0,
			"byteLength":22908,
			"byteOffset":69828,
			"target":34962
		},
		{
			"buffer":0,
			"byteLength":15272,
			"byteOffset":92736,
			"target":34962
		},
		{
			"buffer":0,
			"byteLength":7636,
			"byteOffset":108008,
			"target":34962
		},
		{
			"buffer":0,
			"byteLength":30544,
			"byteOffset":115644,
			"target":34962
		},
		{
			"buffer":0,
			"byteLength":19560,
			"byteOffset":146188,
			"target":34963
		},
		{
			"buffer":0,
			"byteLength":38916,
			"byteOffset":165748,
			"target":34962
		},
		{
			"buffer":0,
			"byteLength":38916,
			"byteOffset":204664,
			"target":34962
		},
		{
			"buffer":0,
			"byteLength":25944,
			"byteOffset":243580,
			"target":34962
		},
		{
			"buffer":0,
			"byteLength":12972,
			"byteOffset":269524,
			"target":34962
		},
		{
			"buffer":0,
			"byteLength":51888,
			"byteOffset":282496,
			"target":34962
		},
		{
			"buffer":0,
			"byteLength":35184,
			"byteOffset":334384,
			"target":34963
		},
		{
			"buffer":0,
			"byteLength":113280,
			"byteOffset":369568,
			"target":34962
		},
		{
			"buffer":0,
			"byteLength":113280,
			"byteOffset":482848,
			"target":34962
		},
		{
			"buffer":0,
			"byteLength":75520,
			"byteOffset":596128,
			"target":34962
		},
		{
			"buffer":0,
			"byteLength":37760,
			"byteOffset":671648,
			"target":34962
		},
		{
			"buffer":0,
			"byteLength":151040,
			"byteOffset":709408,
			"target":34962
		},
		{
			"buffer":0,
			"byteLength":19002,
			"byteOffset":860448,
			"target":34963
		},
		{
			"buffer":0,
			"byteLength":178980,
			"byteOffset":879452,
			"target":34962
		},
		{
			"buffer":0,
			"byteLength":178980,
			"byteOffset":1058432,
			"target":34962
		},
		{
			"buffer":0,
			"byteLength":119320,
			"byteOffset":1237412,
			"target":34962
		},
		{
			"buffer":0,
			"byteLength":59660,
			"byteOffset":1356732,
			"target":34962
		},
		{
			"buffer":0,
			"byteLength":238640,
			"byteOffset":1416392,
			"target":34962
		},
		{
			"buffer":0,
			"byteLength":147108,
			"byteOffset":1655032,
			"target":34963
		}
	],
	"samplers":[
		{
			"magFilter":9729,
			"minFilter":9987
		}
	],
	"buffers":[
		{
			"byteLength":1802140,
			"uri":"untitled.bin"
		}
	]
}
