{
  "accessors": [
    {
      "bufferView": 2,
      "componentType": 5126,
      "count": 5552,
      "max": [
        198.67465209960938,
        264.2213134765625,
        254.408935546875
      ],
      "min": [
        -198.67465209960938,
        -5.724151611328125,
        -415.57281494140625
      ],
      "type": "VEC3"
    },
    {
      "bufferView": 2,
      "byteOffset": 66624,
      "componentType": 5126,
      "count": 5552,
      "type": "VEC3"
    },
    {
      "bufferView": 1,
      "componentType": 5126,
      "count": 5552,
      "type": "VEC2"
    },
    {
      "bufferView": 1,
      "byteOffset": 44416,
      "componentType": 5126,
      "count": 5552,
      "type": "VEC2"
    },
    {
      "bufferView": 0,
      "componentType": 5125,
      "count": 28332,
      "type": "SCALAR"
    }
  ],
  "asset": {
    "generator": "fab-model-conversion",
    "version": "2.0"
  },
  "bufferViews": [
    {
      "buffer": 0,
      "byteLength": 113328,
      "target": 34963
    },
    {
      "buffer": 0,
      "byteLength": 88832,
      "byteOffset": 113328,
      "byteStride": 8,
      "target": 34962
    },
    {
      "buffer": 0,
      "byteLength": 133248,
      "byteOffset": 202160,
      "byteStride": 12,
      "target": 34962
    }
  ],
  "buffers": [
    {
      "byteLength": 335408,
      "uri": "scene.bin"
    }
  ],
  "extensionsUsed": [
    "KHR_materials_emissive_strength"
  ],
  "images": [
    {
      "uri": "textures/Texture_baseColor.png"
    },
    {
      "uri": "textures/Texture_metallicRoughness.png"
    }
  ],
  "materials": [
    {
      "doubleSided": true,
      "extensions": {
        "KHR_materials_emissive_strength": {
          "emissiveStrength": 2.4838170935378088
        }
      },
      "name": "Texture",
      "pbrMetallicRoughness": {
        "baseColorTexture": {
          "index": 0
        },
        "metallicFactor": 0.5043824895466348,
        "metallicRoughnessTexture": {
          "index": 1
        },
        "roughnessFactor": 0.2518072436030282
      }
    }
  ],
  "meshes": [
    {
      "name": "Creature_Texture_0",
      "primitives": [
        {
          "attributes": {
            "NORMAL": 1,
            "POSITION": 0,
            "TEXCOORD_0": 2,
            "TEXCOORD_1": 3
          },
          "indices": 4,
          "material": 0,
          "mode": 4
        }
      ]
    }
  ],
  "nodes": [
    {
      "children": [
        1
      ],
      "matrix": [
        1.0,
        0.0,
        0.0,
        0.0,
        0.0,
        2.220446049250313e-16,
        -1.0,
        0.0,
        0.0,
        1.0,
        2.220446049250313e-16,
        0.0,
        0.0,
        0.0,
        0.0,
        1.0
      ],
      "name": "Sketchfab_model"
    },
    {
      "children": [
        2
      ],
      "matrix": [
        1.0,
        0.0,
        0.0,
        0.0,
        0.0,
        0.0,
        1.0,
        0.0,
        0.0,
        -1.0,
        0.0,
        0.0,
        0.0,
        0.0,
        0.0,
        1.0
      ],
      "name": "Creature.fbx"
    },
    {
      "children": [
        3
      ],
      "name": "RootNode"
    },
    {
      "children": [
        4
      ],
      "matrix": [
        0.003592527937144041,
        -7.97701541578709e-19,
        -7.97701541578709e-19,
        0.0,
        7.977015764473502e-19,
        0.0035925279371440376,
        1.5703438359145678e-10,
        0.0,
        7.977014550112742e-19,
        -1.5703437341410612e-10,
        0.003592527704313394,
        0.0,
        0.0,
        0.0,
        0.0,
        1.0
      ],
      "name": "Creature"
    },
    {
      "mesh": 0,
      "name": "Creature_Texture_0"
    }
  ],
  "samplers": [
    {
      "magFilter": 9729,
      "minFilter": 9987,
      "wrapS": 10497,
      "wrapT": 10497
    }
  ],
  "scene": 0,
  "scenes": [
    {
      "name": "Sketchfab_Scene",
      "nodes": [
        0
      ]
    }
  ],
  "textures": [
    {
      "sampler": 0,
      "source": 0
    },
    {
      "sampler": 0,
      "source": 1
    }
  ]
}
