# Blender 4.0.2
# www.blender.org
mtllib cube.mtl
o Cube
v 1.000000 -1.000000 -1.000000
v 1.000000 -1.000000 1.000000
v -1.000000 -1.000000 1.000000
v -1.000000 -1.000000 -1.000000
v 1.000000 1.000000 -0.999999
v 0.999999 1.000000 1.000001
v -1.000000 1.000000 1.000000
v -1.000000 1.000000 -1.000000
vn -0.0000 -1.0000 -0.0000
vn -0.0000 1.0000 -0.0000
vn 1.0000 -0.0000 -0.0000
vn -0.0000 -0.0000 1.0000
vn -1.0000 -0.0000 -0.0000
vn -0.0000 -0.0000 -1.0000
vt 0.624375 0.500624
vt 0.375625 0.749375
vt 0.375624 0.500625
vt 0.375624 0.003126
vt 0.624374 0.251874
vt 0.375625 0.251875
vt 0.873126 0.998126
vt 0.624375 0.749375
vt 0.873126 0.749375
vt 0.375625 0.998126
vt 0.126874 0.749375
vt 0.126874 0.998126
vt 0.624373 0.003126
vt 0.624375 0.998126
s 0
usemtl Material
f 2/1/1 4/2/1 1/3/1
f 8/4/2 6/5/2 5/6/2
f 5/6/3 2/1/3 1/3/3
f 6/7/4 3/8/4 2/9/4
f 3/8/5 8/10/5 4/2/5
f 1/11/6 8/10/6 5/12/6
f 2/1/1 3/8/1 4/2/1
f 8/4/2 7/13/2 6/5/2
f 5/6/3 6/5/3 2/1/3
f 6/7/4 7/14/4 3/8/4
f 3/8/5 7/14/5 8/10/5
f 1/11/6 4/2/6 8/10/6
